<svg width="324" height="333" viewBox="0 0 324 333" fill="none" xmlns="http://www.w3.org/2000/svg">
<path d="M14.88 46.154C13.788 46.154 12.85 45.944 12.066 45.524C11.282 45.104 10.68 44.5113 10.26 43.746C9.84933 42.9807 9.644 42.0847 9.644 41.058C9.644 40.0313 9.84933 39.14 10.26 38.384C10.68 37.6187 11.282 37.026 12.066 36.606C12.85 36.186 13.788 35.976 14.88 35.976C15.5333 35.976 16.1633 36.074 16.77 36.27C17.3767 36.466 17.8667 36.732 18.24 37.068L17.47 39.098C17.0593 38.7993 16.6487 38.58 16.238 38.44C15.8273 38.2907 15.4073 38.216 14.978 38.216C14.11 38.216 13.4567 38.4633 13.018 38.958C12.5793 39.4433 12.36 40.1433 12.36 41.058C12.36 41.982 12.5793 42.6913 13.018 43.186C13.4567 43.6713 14.11 43.914 14.978 43.914C15.4073 43.914 15.8273 43.844 16.238 43.704C16.6487 43.5547 17.0593 43.3307 17.47 43.032L18.24 45.062C17.8667 45.3887 17.3767 45.6547 16.77 45.86C16.1633 46.056 15.5333 46.154 14.88 46.154ZM21.6073 46V36.13H28.5793V38.118H24.0713V39.994H28.2573V41.982H24.0713V44.012H28.5793V46H21.6073ZM32.3069 46V36.13H34.1969L39.1249 42.276H38.7329V36.13H41.1129V46H39.2369L34.3089 39.84H34.7009V46H32.3069ZM47.3403 46V38.23H44.2043V36.13H53.0523V38.23H49.9163V46H47.3403ZM56.1261 46V36.13H60.8721C61.9921 36.13 62.8554 36.4053 63.4621 36.956C64.0781 37.4973 64.3861 38.2533 64.3861 39.224C64.3861 39.8493 64.2461 40.3953 63.9661 40.862C63.6954 41.3193 63.2987 41.674 62.7761 41.926C62.2627 42.1687 61.6281 42.29 60.8721 42.29L60.9841 42.038H61.6561C62.0574 42.038 62.4121 42.136 62.7201 42.332C63.0281 42.5187 63.2847 42.808 63.4901 43.2L65.0301 46H62.2021L60.4941 42.864C60.4194 42.724 60.3307 42.6167 60.2281 42.542C60.1254 42.4673 60.0087 42.4113 59.8781 42.374C59.7567 42.3367 59.6214 42.318 59.4721 42.318H58.7021V46H56.1261ZM58.7021 40.498H60.4101C60.9047 40.498 61.2827 40.4 61.5441 40.204C61.8054 40.008 61.9361 39.7047 61.9361 39.294C61.9361 38.902 61.8054 38.608 61.5441 38.412C61.2827 38.2067 60.9047 38.104 60.4101 38.104H58.7021V40.498ZM68.1108 46V36.13H75.0828V38.118H70.5748V39.994H74.7608V41.982H70.5748V44.012H75.0828V46H68.1108ZM84.9163 46V36.13H91.8043V38.118H87.4923V40.106H91.4963V42.08H87.4923V46H84.9163ZM95.1237 46V36.13H99.8697C100.99 36.13 101.853 36.4053 102.46 36.956C103.076 37.4973 103.384 38.2533 103.384 39.224C103.384 39.8493 103.244 40.3953 102.964 40.862C102.693 41.3193 102.296 41.674 101.774 41.926C101.26 42.1687 100.626 42.29 99.8697 42.29L99.9817 42.038H100.654C101.055 42.038 101.41 42.136 101.718 42.332C102.026 42.5187 102.282 42.808 102.488 43.2L104.028 46H101.2L99.4917 42.864C99.4171 42.724 99.3284 42.6167 99.2257 42.542C99.1231 42.4673 99.0064 42.4113 98.8757 42.374C98.7544 42.3367 98.6191 42.318 98.4697 42.318H97.6997V46H95.1237ZM97.6997 40.498H99.4077C99.9024 40.498 100.28 40.4 100.542 40.204C100.803 40.008 100.934 39.7047 100.934 39.294C100.934 38.902 100.803 38.608 100.542 38.412C100.28 38.2067 99.9024 38.104 99.4077 38.104H97.6997V40.498ZM111.8 46.154C111.053 46.154 110.372 46.0327 109.756 45.79C109.14 45.5473 108.608 45.202 108.16 44.754C107.721 44.2967 107.381 43.7553 107.138 43.13C106.905 42.5047 106.788 41.814 106.788 41.058C106.788 40.2927 106.905 39.5973 107.138 38.972C107.381 38.3467 107.721 37.81 108.16 37.362C108.608 36.914 109.14 36.5733 109.756 36.34C110.372 36.0973 111.053 35.976 111.8 35.976C112.547 35.976 113.228 36.0973 113.844 36.34C114.46 36.5733 114.987 36.914 115.426 37.362C115.874 37.81 116.215 38.3467 116.448 38.972C116.691 39.588 116.812 40.2787 116.812 41.044C116.812 41.8187 116.691 42.5187 116.448 43.144C116.215 43.7693 115.874 44.3107 115.426 44.768C114.987 45.216 114.46 45.5613 113.844 45.804C113.228 46.0373 112.547 46.154 111.8 46.154ZM111.8 43.998C112.295 43.998 112.715 43.8813 113.06 43.648C113.405 43.4147 113.671 43.0787 113.858 42.64C114.045 42.2013 114.138 41.674 114.138 41.058C114.138 40.442 114.045 39.9147 113.858 39.476C113.681 39.0373 113.415 38.706 113.06 38.482C112.715 38.2487 112.295 38.132 111.8 38.132C111.315 38.132 110.895 38.2487 110.54 38.482C110.195 38.706 109.929 39.0373 109.742 39.476C109.555 39.9147 109.462 40.442 109.462 41.058C109.462 41.674 109.551 42.2013 109.728 42.64C109.915 43.0787 110.185 43.4147 110.54 43.648C110.895 43.8813 111.315 43.998 111.8 43.998ZM120.433 46V36.13H122.323L127.251 42.276H126.859V36.13H129.239V46H127.363L122.435 39.84H122.827V46H120.433ZM135.466 46V38.23H132.33V36.13H141.178V38.23H138.042V46H135.466ZM9.896 67V57.13H12.472V64.858H16.868V67H9.896ZM20.1855 67V57.13H27.1575V59.118H22.6495V60.994H26.8355V62.982H22.6495V65.012H27.1575V67H20.1855ZM30.8851 67V57.13H32.7751L37.7031 63.276H37.3111V57.13H39.6911V67H37.8151L32.8871 60.84H33.2791V67H30.8851ZM48.6344 67.154C47.5051 67.154 46.5438 66.944 45.7504 66.524C44.9664 66.104 44.3691 65.516 43.9584 64.76C43.5478 64.004 43.3424 63.122 43.3424 62.114C43.3424 61.0687 43.5571 60.1633 43.9864 59.398C44.4251 58.6233 45.0504 58.026 45.8624 57.606C46.6744 57.186 47.6544 56.976 48.8024 56.976C49.2598 56.976 49.7078 57.018 50.1464 57.102C50.5851 57.1767 50.9864 57.2933 51.3504 57.452C51.7238 57.6013 52.0411 57.7787 52.3024 57.984L51.5184 59.972C51.0798 59.692 50.6458 59.4913 50.2164 59.37C49.7871 59.2393 49.3204 59.174 48.8164 59.174C47.8738 59.174 47.1691 59.426 46.7024 59.93C46.2451 60.4247 46.0164 61.1527 46.0164 62.114C46.0164 63.066 46.2498 63.7847 46.7164 64.27C47.1831 64.7553 47.8738 64.998 48.7884 64.998C49.0684 64.998 49.3718 64.97 49.6984 64.914C50.0344 64.858 50.3704 64.7787 50.7064 64.676L50.2304 65.642V63.248H48.2564V61.442H52.3304V66.398C51.9851 66.5567 51.6071 66.692 51.1964 66.804C50.7951 66.916 50.3751 67 49.9364 67.056C49.5071 67.1213 49.0731 67.154 48.6344 67.154ZM58.286 67V59.23H55.15V57.13H63.998V59.23H60.862V67H58.286ZM67.0718 67V57.13H69.6478V60.938H73.7218V57.13H76.2838V67H73.7218V63.052H69.6478V67H67.0718Z" fill="black"/>
<path d="M14.88 99.154C13.788 99.154 12.85 98.944 12.066 98.524C11.282 98.104 10.68 97.5113 10.26 96.746C9.84933 95.9807 9.644 95.0847 9.644 94.058C9.644 93.0313 9.84933 92.14 10.26 91.384C10.68 90.6187 11.282 90.026 12.066 89.606C12.85 89.186 13.788 88.976 14.88 88.976C15.5333 88.976 16.1633 89.074 16.77 89.27C17.3767 89.466 17.8667 89.732 18.24 90.068L17.47 92.098C17.0593 91.7993 16.6487 91.58 16.238 91.44C15.8273 91.2907 15.4073 91.216 14.978 91.216C14.11 91.216 13.4567 91.4633 13.018 91.958C12.5793 92.4433 12.36 93.1433 12.36 94.058C12.36 94.982 12.5793 95.6913 13.018 96.186C13.4567 96.6713 14.11 96.914 14.978 96.914C15.4073 96.914 15.8273 96.844 16.238 96.704C16.6487 96.5547 17.0593 96.3307 17.47 96.032L18.24 98.062C17.8667 98.3887 17.3767 98.6547 16.77 98.86C16.1633 99.056 15.5333 99.154 14.88 99.154ZM21.6073 99V89.13H24.1833V92.938H28.2573V89.13H30.8193V99H28.2573V95.052H24.1833V99H21.6073ZM34.7132 99V89.13H41.6852V91.118H37.1772V92.994H41.3632V94.982H37.1772V97.012H41.6852V99H34.7132ZM48.9441 99.154C48.4307 99.154 47.9267 99.112 47.4321 99.028C46.9374 98.944 46.4801 98.8227 46.0601 98.664C45.6401 98.5053 45.2761 98.3187 44.9681 98.104L45.6821 96.102C45.9714 96.2887 46.2934 96.452 46.6481 96.592C47.0027 96.732 47.3761 96.844 47.7681 96.928C48.1601 97.0027 48.5521 97.04 48.9441 97.04C49.5601 97.04 49.9894 96.9607 50.2321 96.802C50.4841 96.634 50.6101 96.4287 50.6101 96.186C50.6101 96.0367 50.5727 95.9107 50.4981 95.808C50.4234 95.7053 50.2974 95.6167 50.1201 95.542C49.9521 95.458 49.7234 95.388 49.4341 95.332L47.7961 94.982C46.9001 94.7953 46.2327 94.4687 45.7941 94.002C45.3554 93.5353 45.1361 92.9333 45.1361 92.196C45.1361 91.5427 45.3087 90.978 45.6541 90.502C46.0087 90.0167 46.4987 89.6433 47.1241 89.382C47.7587 89.1113 48.4867 88.976 49.3081 88.976C49.7654 88.976 50.2041 89.018 50.6241 89.102C51.0534 89.186 51.4501 89.312 51.8141 89.48C52.1781 89.6387 52.4861 89.8253 52.7381 90.04L52.0241 91.916C51.6694 91.6547 51.2541 91.454 50.7781 91.314C50.3114 91.1647 49.8121 91.09 49.2801 91.09C48.9347 91.09 48.6407 91.132 48.3981 91.216C48.1554 91.2907 47.9687 91.4027 47.8381 91.552C47.7167 91.7013 47.6561 91.874 47.6561 92.07C47.6561 92.266 47.7354 92.434 47.8941 92.574C48.0621 92.7047 48.3654 92.8167 48.8041 92.91L50.4281 93.26C51.3334 93.456 52.0101 93.778 52.4581 94.226C52.9061 94.674 53.1301 95.2573 53.1301 95.976C53.1301 96.6107 52.9574 97.1707 52.6121 97.656C52.2667 98.132 51.7814 98.5007 51.1561 98.762C50.5307 99.0233 49.7934 99.154 48.9441 99.154ZM58.6141 99V91.23H55.4781V89.13H64.3261V91.23H61.1901V99H58.6141Z" fill="black"/>
<path d="M12.696 134L9.154 124.13H11.786L14.166 131.27H13.508L16.07 124.13H17.89L20.298 131.27H19.738L22.174 124.13H24.652L21.082 134H19.024L16.742 127.574H17.092L14.754 134H12.696ZM25.6673 134L30.2873 124.13H32.3173L36.9373 134H34.3613L33.1993 131.284L34.1793 131.998H28.4113L29.4053 131.284L28.2433 134H25.6673ZM31.2813 126.818L29.6573 130.696L29.2653 130.024H33.3393L32.9473 130.696L31.3093 126.818H31.2813ZM39.6351 134V124.13H42.2111V134H39.6351ZM49.7644 134.154C49.2511 134.154 48.7471 134.112 48.2524 134.028C47.7577 133.944 47.3004 133.823 46.8804 133.664C46.4604 133.505 46.0964 133.319 45.7884 133.104L46.5024 131.102C46.7917 131.289 47.1137 131.452 47.4684 131.592C47.8231 131.732 48.1964 131.844 48.5884 131.928C48.9804 132.003 49.3724 132.04 49.7644 132.04C50.3804 132.04 50.8097 131.961 51.0524 131.802C51.3044 131.634 51.4304 131.429 51.4304 131.186C51.4304 131.037 51.3931 130.911 51.3184 130.808C51.2437 130.705 51.1177 130.617 50.9404 130.542C50.7724 130.458 50.5437 130.388 50.2544 130.332L48.6164 129.982C47.7204 129.795 47.0531 129.469 46.6144 129.002C46.1757 128.535 45.9564 127.933 45.9564 127.196C45.9564 126.543 46.1291 125.978 46.4744 125.502C46.8291 125.017 47.3191 124.643 47.9444 124.382C48.5791 124.111 49.3071 123.976 50.1284 123.976C50.5857 123.976 51.0244 124.018 51.4444 124.102C51.8737 124.186 52.2704 124.312 52.6344 124.48C52.9984 124.639 53.3064 124.825 53.5584 125.04L52.8444 126.916C52.4897 126.655 52.0744 126.454 51.5984 126.314C51.1317 126.165 50.6324 126.09 50.1004 126.09C49.7551 126.09 49.4611 126.132 49.2184 126.216C48.9757 126.291 48.7891 126.403 48.6584 126.552C48.5371 126.701 48.4764 126.874 48.4764 127.07C48.4764 127.266 48.5557 127.434 48.7144 127.574C48.8824 127.705 49.1857 127.817 49.6244 127.91L51.2484 128.26C52.1537 128.456 52.8304 128.778 53.2784 129.226C53.7264 129.674 53.9504 130.257 53.9504 130.976C53.9504 131.611 53.7777 132.171 53.4324 132.656C53.0871 133.132 52.6017 133.501 51.9764 133.762C51.3511 134.023 50.6137 134.154 49.7644 134.154ZM59.4345 134V126.23H56.2985V124.13H65.1465V126.23H62.0105V134H59.4345ZM77.1261 134L73.5841 124.13H76.2161L78.5961 131.27H77.9381L80.5001 124.13H82.3201L84.7281 131.27H84.1681L86.6041 124.13H89.0821L85.5121 134H83.4541L81.1721 127.574H81.5221L79.1841 134H77.1261ZM92.2171 134V124.13H94.7931V134H92.2171ZM98.6784 134V124.13H102.766C103.905 124.13 104.876 124.326 105.678 124.718C106.481 125.101 107.092 125.661 107.512 126.398C107.942 127.126 108.156 128.013 108.156 129.058C108.156 130.103 107.942 130.995 107.512 131.732C107.092 132.469 106.481 133.034 105.678 133.426C104.876 133.809 103.905 134 102.766 134H98.6784ZM101.254 131.914H102.598C103.578 131.914 104.302 131.681 104.768 131.214C105.244 130.738 105.482 130.019 105.482 129.058C105.482 128.087 105.244 127.373 104.768 126.916C104.292 126.449 103.569 126.216 102.598 126.216H101.254V131.914ZM113.534 134V126.23H110.398V124.13H119.246V126.23H116.11V134H113.534ZM122.32 134V124.13H124.896V127.938H128.97V124.13H131.532V134H128.97V130.052H124.896V134H122.32Z" fill="black"/>
<rect x="1" width="315" height="27" fill="black"/>
<path d="M193.575 57.126C193.155 57.126 192.745 57.0793 192.343 56.986C191.942 56.8927 191.564 56.7573 191.209 56.58C190.864 56.4027 190.556 56.1927 190.285 55.95L190.719 55.04C191.167 55.404 191.62 55.6747 192.077 55.852C192.544 56.02 193.039 56.104 193.561 56.104C194.252 56.104 194.789 55.9127 195.171 55.53C195.563 55.1473 195.759 54.6433 195.759 54.018C195.759 53.374 195.573 52.8467 195.199 52.436C194.826 52.0253 194.313 51.82 193.659 51.82C193.183 51.82 192.763 51.918 192.399 52.114C192.045 52.3007 191.723 52.5947 191.433 52.996H190.593V47.13H196.319V48.11H191.727V52.044H191.419C191.662 51.652 191.998 51.3533 192.427 51.148C192.857 50.9333 193.337 50.826 193.869 50.826C194.495 50.826 195.031 50.9567 195.479 51.218C195.937 51.4793 196.287 51.848 196.529 52.324C196.781 52.7907 196.907 53.3367 196.907 53.962C196.907 54.578 196.772 55.124 196.501 55.6C196.231 56.076 195.848 56.4493 195.353 56.72C194.859 56.9907 194.266 57.126 193.575 57.126ZM203.188 57.126C202.852 57.126 202.511 57.0793 202.166 56.986C201.821 56.8833 201.494 56.7433 201.186 56.566C200.887 56.3887 200.626 56.1787 200.402 55.936L200.836 55.026C201.172 55.39 201.545 55.6607 201.956 55.838C202.367 56.0153 202.782 56.104 203.202 56.104C203.659 56.104 204.065 56.02 204.42 55.852C204.775 55.684 205.073 55.432 205.316 55.096C205.559 54.7507 205.741 54.326 205.862 53.822C205.993 53.3087 206.058 52.716 206.058 52.044V50.742H206.17C206.114 51.2647 205.955 51.722 205.694 52.114C205.442 52.506 205.115 52.8047 204.714 53.01C204.313 53.2153 203.86 53.318 203.356 53.318C202.777 53.318 202.264 53.1873 201.816 52.926C201.377 52.6647 201.027 52.296 200.766 51.82C200.514 51.344 200.388 50.8073 200.388 50.21C200.388 49.5847 200.519 49.034 200.78 48.558C201.051 48.0727 201.419 47.6947 201.886 47.424C202.362 47.144 202.908 47.004 203.524 47.004C204.299 47.004 204.957 47.1953 205.498 47.578C206.049 47.9513 206.464 48.4973 206.744 49.216C207.024 49.9347 207.164 50.8027 207.164 51.82C207.164 52.9493 207.005 53.9107 206.688 54.704C206.38 55.4973 205.927 56.0993 205.33 56.51C204.742 56.9207 204.028 57.126 203.188 57.126ZM203.608 52.352C204.019 52.352 204.383 52.2587 204.7 52.072C205.017 51.8853 205.265 51.6287 205.442 51.302C205.619 50.9753 205.708 50.5973 205.708 50.168C205.708 49.7293 205.619 49.3467 205.442 49.02C205.265 48.6933 205.017 48.4367 204.7 48.25C204.383 48.0633 204.019 47.97 203.608 47.97C203.188 47.97 202.819 48.0633 202.502 48.25C202.194 48.4367 201.947 48.6933 201.76 49.02C201.583 49.3467 201.494 49.7293 201.494 50.168C201.494 50.5973 201.583 50.9753 201.76 51.302C201.947 51.6287 202.194 51.8853 202.502 52.072C202.819 52.2587 203.188 52.352 203.608 52.352ZM211.036 57V55.572H212.464V57H211.036ZM219.85 57.126C219.43 57.126 219.019 57.0793 218.618 56.986C218.217 56.8927 217.839 56.7573 217.484 56.58C217.139 56.4027 216.831 56.1927 216.56 55.95L216.994 55.04C217.442 55.404 217.895 55.6747 218.352 55.852C218.819 56.02 219.313 56.104 219.836 56.104C220.527 56.104 221.063 55.9127 221.446 55.53C221.838 55.1473 222.034 54.6433 222.034 54.018C222.034 53.374 221.847 52.8467 221.474 52.436C221.101 52.0253 220.587 51.82 219.934 51.82C219.458 51.82 219.038 51.918 218.674 52.114C218.319 52.3007 217.997 52.5947 217.708 52.996H216.868V47.13H222.594V48.11H218.002V52.044H217.694C217.937 51.652 218.273 51.3533 218.702 51.148C219.131 50.9333 219.612 50.826 220.144 50.826C220.769 50.826 221.306 50.9567 221.754 51.218C222.211 51.4793 222.561 51.848 222.804 52.324C223.056 52.7907 223.182 53.3367 223.182 53.962C223.182 54.578 223.047 55.124 222.776 55.6C222.505 56.076 222.123 56.4493 221.628 56.72C221.133 56.9907 220.541 57.126 219.85 57.126Z" fill="black"/>
<path d="M271.715 57.126C270.931 57.126 270.264 56.9393 269.713 56.566C269.172 56.1833 268.761 55.6327 268.481 54.914C268.201 54.1953 268.061 53.3273 268.061 52.31C268.061 51.1713 268.215 50.21 268.523 49.426C268.841 48.6327 269.298 48.0307 269.895 47.62C270.502 47.2093 271.221 47.004 272.051 47.004C272.387 47.004 272.728 47.0553 273.073 47.158C273.419 47.2513 273.741 47.3867 274.039 47.564C274.347 47.7413 274.609 47.9513 274.823 48.194L274.403 49.09C274.058 48.726 273.68 48.46 273.269 48.292C272.868 48.1147 272.453 48.026 272.023 48.026C271.566 48.026 271.16 48.11 270.805 48.278C270.46 48.446 270.161 48.7027 269.909 49.048C269.667 49.384 269.485 49.8087 269.363 50.322C269.242 50.826 269.181 51.414 269.181 52.086V53.388H269.055C269.111 52.856 269.265 52.3987 269.517 52.016C269.779 51.624 270.11 51.3253 270.511 51.12C270.913 50.9147 271.365 50.812 271.869 50.812C272.448 50.812 272.961 50.9427 273.409 51.204C273.857 51.4653 274.207 51.834 274.459 52.31C274.711 52.7767 274.837 53.3133 274.837 53.92C274.837 54.536 274.707 55.0867 274.445 55.572C274.184 56.0573 273.815 56.44 273.339 56.72C272.863 56.9907 272.322 57.126 271.715 57.126ZM271.631 56.146C272.042 56.146 272.406 56.0573 272.723 55.88C273.041 55.6933 273.288 55.4367 273.465 55.11C273.643 54.774 273.731 54.3913 273.731 53.962C273.731 53.5327 273.643 53.1547 273.465 52.828C273.288 52.5013 273.041 52.2447 272.723 52.058C272.415 51.8713 272.051 51.778 271.631 51.778C271.221 51.778 270.857 51.8713 270.539 52.058C270.222 52.2447 269.975 52.5013 269.797 52.828C269.62 53.1547 269.531 53.5327 269.531 53.962C269.531 54.3913 269.62 54.774 269.797 55.11C269.975 55.4367 270.222 55.6933 270.539 55.88C270.857 56.0573 271.221 56.146 271.631 56.146ZM279.396 57V56.02H281.65V48.124H282.252L279.872 49.636L279.382 48.782L281.972 47.13H282.798V56.02H284.912V57H279.396ZM289.036 57V55.572H290.464V57H289.036ZM297.85 57.126C297.43 57.126 297.019 57.0793 296.618 56.986C296.217 56.8927 295.839 56.7573 295.484 56.58C295.139 56.4027 294.831 56.1927 294.56 55.95L294.994 55.04C295.442 55.404 295.895 55.6747 296.352 55.852C296.819 56.02 297.313 56.104 297.836 56.104C298.527 56.104 299.063 55.9127 299.446 55.53C299.838 55.1473 300.034 54.6433 300.034 54.018C300.034 53.374 299.847 52.8467 299.474 52.436C299.101 52.0253 298.587 51.82 297.934 51.82C297.458 51.82 297.038 51.918 296.674 52.114C296.319 52.3007 295.997 52.5947 295.708 52.996H294.868V47.13H300.594V48.11H296.002V52.044H295.694C295.937 51.652 296.273 51.3533 296.702 51.148C297.131 50.9333 297.612 50.826 298.144 50.826C298.769 50.826 299.306 50.9567 299.754 51.218C300.211 51.4793 300.561 51.848 300.804 52.324C301.056 52.7907 301.182 53.3367 301.182 53.962C301.182 54.578 301.047 55.124 300.776 55.6C300.505 56.076 300.123 56.4493 299.628 56.72C299.133 56.9907 298.541 57.126 297.85 57.126Z" fill="black"/>
<path d="M187.244 99.126C186.133 99.126 185.27 98.888 184.654 98.412C184.038 97.9267 183.73 97.25 183.73 96.382C183.73 95.9247 183.823 95.5187 184.01 95.164C184.197 94.8 184.458 94.506 184.794 94.282C185.13 94.058 185.517 93.918 185.956 93.862V94.072C185.555 93.9787 185.205 93.82 184.906 93.596C184.607 93.3627 184.374 93.078 184.206 92.742C184.047 92.406 183.968 92.0373 183.968 91.636C183.968 90.8053 184.262 90.1613 184.85 89.704C185.447 89.2373 186.245 89.004 187.244 89.004C188.252 89.004 189.05 89.2373 189.638 89.704C190.235 90.1613 190.534 90.8053 190.534 91.636C190.534 92.0373 190.45 92.4107 190.282 92.756C190.123 93.092 189.895 93.372 189.596 93.596C189.297 93.82 188.947 93.974 188.546 94.058V93.862C188.985 93.918 189.367 94.0627 189.694 94.296C190.03 94.52 190.291 94.8093 190.478 95.164C190.665 95.5187 190.758 95.9247 190.758 96.382C190.758 97.25 190.45 97.9267 189.834 98.412C189.218 98.888 188.355 99.126 187.244 99.126ZM187.244 98.174C188.037 98.174 188.635 98.02 189.036 97.712C189.447 97.404 189.652 96.9373 189.652 96.312C189.652 95.696 189.447 95.2387 189.036 94.94C188.635 94.632 188.037 94.478 187.244 94.478C186.46 94.478 185.863 94.632 185.452 94.94C185.041 95.2387 184.836 95.696 184.836 96.312C184.836 96.9373 185.041 97.404 185.452 97.712C185.863 98.02 186.46 98.174 187.244 98.174ZM187.244 93.526C187.935 93.526 188.471 93.3673 188.854 93.05C189.237 92.7327 189.428 92.294 189.428 91.734C189.428 91.174 189.237 90.74 188.854 90.432C188.471 90.1147 187.935 89.956 187.244 89.956C186.563 89.956 186.031 90.1147 185.648 90.432C185.265 90.74 185.074 91.174 185.074 91.734C185.074 92.294 185.265 92.7327 185.648 93.05C186.031 93.3673 186.563 93.526 187.244 93.526ZM198.817 99V96.886H194.267V96.018L199.013 89.13H199.979V95.906H201.449V96.886H199.979V99H198.817ZM198.817 95.906V90.516H199.153L195.247 96.214V95.906H198.817ZM205.041 95.738V94.8H208.961V95.738H205.041ZM215.595 99.126C215.259 99.126 214.918 99.0793 214.573 98.986C214.227 98.8833 213.901 98.7433 213.593 98.566C213.294 98.3887 213.033 98.1787 212.809 97.936L213.243 97.026C213.579 97.39 213.952 97.6607 214.363 97.838C214.773 98.0153 215.189 98.104 215.609 98.104C216.066 98.104 216.472 98.02 216.827 97.852C217.181 97.684 217.48 97.432 217.723 97.096C217.965 96.7507 218.147 96.326 218.269 95.822C218.399 95.3087 218.465 94.716 218.465 94.044V92.742H218.577C218.521 93.2647 218.362 93.722 218.101 94.114C217.849 94.506 217.522 94.8047 217.121 95.01C216.719 95.2153 216.267 95.318 215.763 95.318C215.184 95.318 214.671 95.1873 214.223 94.926C213.784 94.6647 213.434 94.296 213.173 93.82C212.921 93.344 212.795 92.8073 212.795 92.21C212.795 91.5847 212.925 91.034 213.187 90.558C213.457 90.0727 213.826 89.6947 214.293 89.424C214.769 89.144 215.315 89.004 215.931 89.004C216.705 89.004 217.363 89.1953 217.905 89.578C218.455 89.9513 218.871 90.4973 219.151 91.216C219.431 91.9347 219.571 92.8027 219.571 93.82C219.571 94.9493 219.412 95.9107 219.095 96.704C218.787 97.4973 218.334 98.0993 217.737 98.51C217.149 98.9207 216.435 99.126 215.595 99.126ZM216.015 94.352C216.425 94.352 216.789 94.2587 217.107 94.072C217.424 93.8853 217.671 93.6287 217.849 93.302C218.026 92.9753 218.115 92.5973 218.115 92.168C218.115 91.7293 218.026 91.3467 217.849 91.02C217.671 90.6933 217.424 90.4367 217.107 90.25C216.789 90.0633 216.425 89.97 216.015 89.97C215.595 89.97 215.226 90.0633 214.909 90.25C214.601 90.4367 214.353 90.6933 214.167 91.02C213.989 91.3467 213.901 91.7293 213.901 92.168C213.901 92.5973 213.989 92.9753 214.167 93.302C214.353 93.6287 214.601 93.8853 214.909 94.072C215.226 94.2587 215.595 94.352 216.015 94.352ZM223.821 99V98.132L227.195 94.492C227.513 94.1467 227.769 93.8247 227.965 93.526C228.161 93.218 228.306 92.9193 228.399 92.63C228.493 92.3407 228.539 92.0467 228.539 91.748C228.539 91.188 228.367 90.7633 228.021 90.474C227.685 90.1753 227.191 90.026 226.537 90.026C226.033 90.026 225.562 90.1193 225.123 90.306C224.694 90.4833 224.283 90.7633 223.891 91.146L223.457 90.25C223.821 89.8767 224.283 89.578 224.843 89.354C225.413 89.1207 226.01 89.004 226.635 89.004C227.298 89.004 227.858 89.1067 228.315 89.312C228.773 89.5173 229.118 89.8207 229.351 90.222C229.585 90.614 229.701 91.0947 229.701 91.664C229.701 91.9627 229.664 92.2567 229.589 92.546C229.524 92.826 229.417 93.1107 229.267 93.4C229.127 93.68 228.945 93.9693 228.721 94.268C228.507 94.5667 228.245 94.8747 227.937 95.192L224.969 98.342V98.02H230.107V99H223.821Z" fill="black"/>
<path d="M184.612 134L189.456 124.62V125.124H183.982V124.13H190.506V124.998L185.886 134H184.612ZM197.949 134.126C197.529 134.126 197.118 134.079 196.717 133.986C196.315 133.893 195.937 133.757 195.583 133.58C195.237 133.403 194.929 133.193 194.659 132.95L195.093 132.04C195.541 132.404 195.993 132.675 196.451 132.852C196.917 133.02 197.412 133.104 197.935 133.104C198.625 133.104 199.162 132.913 199.545 132.53C199.937 132.147 200.133 131.643 200.133 131.018C200.133 130.374 199.946 129.847 199.573 129.436C199.199 129.025 198.686 128.82 198.033 128.82C197.557 128.82 197.137 128.918 196.773 129.114C196.418 129.301 196.096 129.595 195.807 129.996H194.967V124.13H200.693V125.11H196.101V129.044H195.793C196.035 128.652 196.371 128.353 196.801 128.148C197.23 127.933 197.711 127.826 198.243 127.826C198.868 127.826 199.405 127.957 199.853 128.218C200.31 128.479 200.66 128.848 200.903 129.324C201.155 129.791 201.281 130.337 201.281 130.962C201.281 131.578 201.145 132.124 200.875 132.6C200.604 133.076 200.221 133.449 199.727 133.72C199.232 133.991 198.639 134.126 197.949 134.126ZM205.041 130.738V129.8H208.961V130.738H205.041ZM216.267 134.126C215.156 134.126 214.293 133.888 213.677 133.412C213.061 132.927 212.753 132.25 212.753 131.382C212.753 130.925 212.846 130.519 213.033 130.164C213.219 129.8 213.481 129.506 213.817 129.282C214.153 129.058 214.54 128.918 214.979 128.862V129.072C214.577 128.979 214.227 128.82 213.929 128.596C213.63 128.363 213.397 128.078 213.229 127.742C213.07 127.406 212.991 127.037 212.991 126.636C212.991 125.805 213.285 125.161 213.873 124.704C214.47 124.237 215.268 124.004 216.267 124.004C217.275 124.004 218.073 124.237 218.661 124.704C219.258 125.161 219.557 125.805 219.557 126.636C219.557 127.037 219.473 127.411 219.305 127.756C219.146 128.092 218.917 128.372 218.619 128.596C218.32 128.82 217.97 128.974 217.569 129.058V128.862C218.007 128.918 218.39 129.063 218.717 129.296C219.053 129.52 219.314 129.809 219.501 130.164C219.687 130.519 219.781 130.925 219.781 131.382C219.781 132.25 219.473 132.927 218.857 133.412C218.241 133.888 217.377 134.126 216.267 134.126ZM216.267 133.174C217.06 133.174 217.657 133.02 218.059 132.712C218.469 132.404 218.675 131.937 218.675 131.312C218.675 130.696 218.469 130.239 218.059 129.94C217.657 129.632 217.06 129.478 216.267 129.478C215.483 129.478 214.885 129.632 214.475 129.94C214.064 130.239 213.859 130.696 213.859 131.312C213.859 131.937 214.064 132.404 214.475 132.712C214.885 133.02 215.483 133.174 216.267 133.174ZM216.267 128.526C216.957 128.526 217.494 128.367 217.877 128.05C218.259 127.733 218.451 127.294 218.451 126.734C218.451 126.174 218.259 125.74 217.877 125.432C217.494 125.115 216.957 124.956 216.267 124.956C215.585 124.956 215.053 125.115 214.671 125.432C214.288 125.74 214.097 126.174 214.097 126.734C214.097 127.294 214.288 127.733 214.671 128.05C215.053 128.367 215.585 128.526 216.267 128.526ZM227.839 134V131.886H223.289V131.018L228.035 124.13H229.001V130.906H230.471V131.886H229.001V134H227.839ZM227.839 130.906V125.516H228.175L224.269 131.214V130.906H227.839Z" fill="black"/>
<path d="M265.744 134.126C264.633 134.126 263.77 133.888 263.154 133.412C262.538 132.927 262.23 132.25 262.23 131.382C262.23 130.925 262.323 130.519 262.51 130.164C262.697 129.8 262.958 129.506 263.294 129.282C263.63 129.058 264.017 128.918 264.456 128.862V129.072C264.055 128.979 263.705 128.82 263.406 128.596C263.107 128.363 262.874 128.078 262.706 127.742C262.547 127.406 262.468 127.037 262.468 126.636C262.468 125.805 262.762 125.161 263.35 124.704C263.947 124.237 264.745 124.004 265.744 124.004C266.752 124.004 267.55 124.237 268.138 124.704C268.735 125.161 269.034 125.805 269.034 126.636C269.034 127.037 268.95 127.411 268.782 127.756C268.623 128.092 268.395 128.372 268.096 128.596C267.797 128.82 267.447 128.974 267.046 129.058V128.862C267.485 128.918 267.867 129.063 268.194 129.296C268.53 129.52 268.791 129.809 268.978 130.164C269.165 130.519 269.258 130.925 269.258 131.382C269.258 132.25 268.95 132.927 268.334 133.412C267.718 133.888 266.855 134.126 265.744 134.126ZM265.744 133.174C266.537 133.174 267.135 133.02 267.536 132.712C267.947 132.404 268.152 131.937 268.152 131.312C268.152 130.696 267.947 130.239 267.536 129.94C267.135 129.632 266.537 129.478 265.744 129.478C264.96 129.478 264.363 129.632 263.952 129.94C263.541 130.239 263.336 130.696 263.336 131.312C263.336 131.937 263.541 132.404 263.952 132.712C264.363 133.02 264.96 133.174 265.744 133.174ZM265.744 128.526C266.435 128.526 266.971 128.367 267.354 128.05C267.737 127.733 267.928 127.294 267.928 126.734C267.928 126.174 267.737 125.74 267.354 125.432C266.971 125.115 266.435 124.956 265.744 124.956C265.063 124.956 264.531 125.115 264.148 125.432C263.765 125.74 263.574 126.174 263.574 126.734C263.574 127.294 263.765 127.733 264.148 128.05C264.531 128.367 265.063 128.526 265.744 128.526ZM273.299 134V133.132L276.673 129.492C276.99 129.147 277.247 128.825 277.443 128.526C277.639 128.218 277.783 127.919 277.877 127.63C277.97 127.341 278.017 127.047 278.017 126.748C278.017 126.188 277.844 125.763 277.499 125.474C277.163 125.175 276.668 125.026 276.015 125.026C275.511 125.026 275.039 125.119 274.601 125.306C274.171 125.483 273.761 125.763 273.369 126.146L272.935 125.25C273.299 124.877 273.761 124.578 274.321 124.354C274.89 124.121 275.487 124.004 276.113 124.004C276.775 124.004 277.335 124.107 277.793 124.312C278.25 124.517 278.595 124.821 278.829 125.222C279.062 125.614 279.179 126.095 279.179 126.664C279.179 126.963 279.141 127.257 279.067 127.546C279.001 127.826 278.894 128.111 278.745 128.4C278.605 128.68 278.423 128.969 278.199 129.268C277.984 129.567 277.723 129.875 277.415 130.192L274.447 133.342V133.02H279.585V134H273.299ZM283.541 130.738V129.8H287.461V130.738H283.541ZM294.095 134.126C293.759 134.126 293.418 134.079 293.073 133.986C292.727 133.883 292.401 133.743 292.093 133.566C291.794 133.389 291.533 133.179 291.309 132.936L291.743 132.026C292.079 132.39 292.452 132.661 292.863 132.838C293.273 133.015 293.689 133.104 294.109 133.104C294.566 133.104 294.972 133.02 295.327 132.852C295.681 132.684 295.98 132.432 296.223 132.096C296.465 131.751 296.647 131.326 296.769 130.822C296.899 130.309 296.965 129.716 296.965 129.044V127.742H297.077C297.021 128.265 296.862 128.722 296.601 129.114C296.349 129.506 296.022 129.805 295.621 130.01C295.219 130.215 294.767 130.318 294.263 130.318C293.684 130.318 293.171 130.187 292.723 129.926C292.284 129.665 291.934 129.296 291.673 128.82C291.421 128.344 291.295 127.807 291.295 127.21C291.295 126.585 291.425 126.034 291.687 125.558C291.957 125.073 292.326 124.695 292.793 124.424C293.269 124.144 293.815 124.004 294.431 124.004C295.205 124.004 295.863 124.195 296.405 124.578C296.955 124.951 297.371 125.497 297.651 126.216C297.931 126.935 298.071 127.803 298.071 128.82C298.071 129.949 297.912 130.911 297.595 131.704C297.287 132.497 296.834 133.099 296.237 133.51C295.649 133.921 294.935 134.126 294.095 134.126ZM294.515 129.352C294.925 129.352 295.289 129.259 295.607 129.072C295.924 128.885 296.171 128.629 296.349 128.302C296.526 127.975 296.615 127.597 296.615 127.168C296.615 126.729 296.526 126.347 296.349 126.02C296.171 125.693 295.924 125.437 295.607 125.25C295.289 125.063 294.925 124.97 294.515 124.97C294.095 124.97 293.726 125.063 293.409 125.25C293.101 125.437 292.853 125.693 292.667 126.02C292.489 126.347 292.401 126.729 292.401 127.168C292.401 127.597 292.489 127.975 292.667 128.302C292.853 128.629 293.101 128.885 293.409 129.072C293.726 129.259 294.095 129.352 294.515 129.352ZM305.261 134.126C304.515 134.126 303.88 133.935 303.357 133.552C302.844 133.16 302.457 132.586 302.195 131.83C301.934 131.074 301.803 130.15 301.803 129.058C301.803 127.957 301.934 127.033 302.195 126.286C302.457 125.53 302.844 124.961 303.357 124.578C303.88 124.195 304.515 124.004 305.261 124.004C306.017 124.004 306.652 124.195 307.165 124.578C307.679 124.961 308.066 125.525 308.327 126.272C308.589 127.019 308.719 127.943 308.719 129.044C308.719 130.145 308.589 131.074 308.327 131.83C308.066 132.586 307.679 133.16 307.165 133.552C306.652 133.935 306.017 134.126 305.261 134.126ZM305.261 133.132C306.045 133.132 306.624 132.801 306.997 132.138C307.38 131.475 307.571 130.444 307.571 129.044C307.571 127.644 307.385 126.622 307.011 125.978C306.638 125.325 306.055 124.998 305.261 124.998C304.487 124.998 303.908 125.325 303.525 125.978C303.143 126.631 302.951 127.653 302.951 129.044C302.951 130.444 303.138 131.475 303.511 132.138C303.894 132.801 304.477 133.132 305.261 133.132Z" fill="black"/>
<path d="M264.572 99.126C264.236 99.126 263.895 99.0793 263.55 98.986C263.205 98.8833 262.878 98.7433 262.57 98.566C262.271 98.3887 262.01 98.1787 261.786 97.936L262.22 97.026C262.556 97.39 262.929 97.6607 263.34 97.838C263.751 98.0153 264.166 98.104 264.586 98.104C265.043 98.104 265.449 98.02 265.804 97.852C266.159 97.684 266.457 97.432 266.7 97.096C266.943 96.7507 267.125 96.326 267.246 95.822C267.377 95.3087 267.442 94.716 267.442 94.044V92.742H267.554C267.498 93.2647 267.339 93.722 267.078 94.114C266.826 94.506 266.499 94.8047 266.098 95.01C265.697 95.2153 265.244 95.318 264.74 95.318C264.161 95.318 263.648 95.1873 263.2 94.926C262.761 94.6647 262.411 94.296 262.15 93.82C261.898 93.344 261.772 92.8073 261.772 92.21C261.772 91.5847 261.903 91.034 262.164 90.558C262.435 90.0727 262.803 89.6947 263.27 89.424C263.746 89.144 264.292 89.004 264.908 89.004C265.683 89.004 266.341 89.1953 266.882 89.578C267.433 89.9513 267.848 90.4973 268.128 91.216C268.408 91.9347 268.548 92.8027 268.548 93.82C268.548 94.9493 268.389 95.9107 268.072 96.704C267.764 97.4973 267.311 98.0993 266.714 98.51C266.126 98.9207 265.412 99.126 264.572 99.126ZM264.992 94.352C265.403 94.352 265.767 94.2587 266.084 94.072C266.401 93.8853 266.649 93.6287 266.826 93.302C267.003 92.9753 267.092 92.5973 267.092 92.168C267.092 91.7293 267.003 91.3467 266.826 91.02C266.649 90.6933 266.401 90.4367 266.084 90.25C265.767 90.0633 265.403 89.97 264.992 89.97C264.572 89.97 264.203 90.0633 263.886 90.25C263.578 90.4367 263.331 90.6933 263.144 91.02C262.967 91.3467 262.878 91.7293 262.878 92.168C262.878 92.5973 262.967 92.9753 263.144 93.302C263.331 93.6287 263.578 93.8853 263.886 94.072C264.203 94.2587 264.572 94.352 264.992 94.352ZM275.739 99.126C274.992 99.126 274.357 98.9347 273.835 98.552C273.321 98.16 272.934 97.586 272.673 96.83C272.411 96.074 272.281 95.15 272.281 94.058C272.281 92.9567 272.411 92.0327 272.673 91.286C272.934 90.53 273.321 89.9607 273.835 89.578C274.357 89.1953 274.992 89.004 275.739 89.004C276.495 89.004 277.129 89.1953 277.643 89.578C278.156 89.9607 278.543 90.5253 278.805 91.272C279.066 92.0187 279.197 92.9427 279.197 94.044C279.197 95.1453 279.066 96.074 278.805 96.83C278.543 97.586 278.156 98.16 277.643 98.552C277.129 98.9347 276.495 99.126 275.739 99.126ZM275.739 98.132C276.523 98.132 277.101 97.8007 277.475 97.138C277.857 96.4753 278.049 95.444 278.049 94.044C278.049 92.644 277.862 91.622 277.489 90.978C277.115 90.3247 276.532 89.998 275.739 89.998C274.964 89.998 274.385 90.3247 274.003 90.978C273.62 91.6313 273.429 92.6533 273.429 94.044C273.429 95.444 273.615 96.4753 273.989 97.138C274.371 97.8007 274.955 98.132 275.739 98.132ZM283.041 95.738V94.8H286.961V95.738H283.041ZM293.595 99.126C293.259 99.126 292.918 99.0793 292.573 98.986C292.227 98.8833 291.901 98.7433 291.593 98.566C291.294 98.3887 291.033 98.1787 290.809 97.936L291.243 97.026C291.579 97.39 291.952 97.6607 292.363 97.838C292.773 98.0153 293.189 98.104 293.609 98.104C294.066 98.104 294.472 98.02 294.827 97.852C295.181 97.684 295.48 97.432 295.723 97.096C295.965 96.7507 296.147 96.326 296.269 95.822C296.399 95.3087 296.465 94.716 296.465 94.044V92.742H296.577C296.521 93.2647 296.362 93.722 296.101 94.114C295.849 94.506 295.522 94.8047 295.121 95.01C294.719 95.2153 294.267 95.318 293.763 95.318C293.184 95.318 292.671 95.1873 292.223 94.926C291.784 94.6647 291.434 94.296 291.173 93.82C290.921 93.344 290.795 92.8073 290.795 92.21C290.795 91.5847 290.925 91.034 291.187 90.558C291.457 90.0727 291.826 89.6947 292.293 89.424C292.769 89.144 293.315 89.004 293.931 89.004C294.705 89.004 295.363 89.1953 295.905 89.578C296.455 89.9513 296.871 90.4973 297.151 91.216C297.431 91.9347 297.571 92.8027 297.571 93.82C297.571 94.9493 297.412 95.9107 297.095 96.704C296.787 97.4973 296.334 98.0993 295.737 98.51C295.149 98.9207 294.435 99.126 293.595 99.126ZM294.015 94.352C294.425 94.352 294.789 94.2587 295.107 94.072C295.424 93.8853 295.671 93.6287 295.849 93.302C296.026 92.9753 296.115 92.5973 296.115 92.168C296.115 91.7293 296.026 91.3467 295.849 91.02C295.671 90.6933 295.424 90.4367 295.107 90.25C294.789 90.0633 294.425 89.97 294.015 89.97C293.595 89.97 293.226 90.0633 292.909 90.25C292.601 90.4367 292.353 90.6933 292.167 91.02C291.989 91.3467 291.901 91.7293 291.901 92.168C291.901 92.5973 291.989 92.9753 292.167 93.302C292.353 93.6287 292.601 93.8853 292.909 94.072C293.226 94.2587 293.595 94.352 294.015 94.352ZM304.761 99.126C303.651 99.126 302.787 98.888 302.171 98.412C301.555 97.9267 301.247 97.25 301.247 96.382C301.247 95.9247 301.341 95.5187 301.527 95.164C301.714 94.8 301.975 94.506 302.311 94.282C302.647 94.058 303.035 93.918 303.473 93.862V94.072C303.072 93.9787 302.722 93.82 302.423 93.596C302.125 93.3627 301.891 93.078 301.723 92.742C301.565 92.406 301.485 92.0373 301.485 91.636C301.485 90.8053 301.779 90.1613 302.367 89.704C302.965 89.2373 303.763 89.004 304.761 89.004C305.769 89.004 306.567 89.2373 307.155 89.704C307.753 90.1613 308.051 90.8053 308.051 91.636C308.051 92.0373 307.967 92.4107 307.799 92.756C307.641 93.092 307.412 93.372 307.113 93.596C306.815 93.82 306.465 93.974 306.063 94.058V93.862C306.502 93.918 306.885 94.0627 307.211 94.296C307.547 94.52 307.809 94.8093 307.995 95.164C308.182 95.5187 308.275 95.9247 308.275 96.382C308.275 97.25 307.967 97.9267 307.351 98.412C306.735 98.888 305.872 99.126 304.761 99.126ZM304.761 98.174C305.555 98.174 306.152 98.02 306.553 97.712C306.964 97.404 307.169 96.9373 307.169 96.312C307.169 95.696 306.964 95.2387 306.553 94.94C306.152 94.632 305.555 94.478 304.761 94.478C303.977 94.478 303.38 94.632 302.969 94.94C302.559 95.2387 302.353 95.696 302.353 96.312C302.353 96.9373 302.559 97.404 302.969 97.712C303.38 98.02 303.977 98.174 304.761 98.174ZM304.761 93.526C305.452 93.526 305.989 93.3673 306.371 93.05C306.754 92.7327 306.945 92.294 306.945 91.734C306.945 91.174 306.754 90.74 306.371 90.432C305.989 90.1147 305.452 89.956 304.761 89.956C304.08 89.956 303.548 90.1147 303.165 90.432C302.783 90.74 302.591 91.174 302.591 91.734C302.591 92.294 302.783 92.7327 303.165 93.05C303.548 93.3673 304.08 93.526 304.761 93.526Z" fill="black"/>
<path d="M207.564 19.154C207.051 19.154 206.547 19.112 206.052 19.028C205.557 18.944 205.1 18.8227 204.68 18.664C204.26 18.5053 203.896 18.3187 203.588 18.104L204.302 16.102C204.591 16.2887 204.913 16.452 205.268 16.592C205.623 16.732 205.996 16.844 206.388 16.928C206.78 17.0027 207.172 17.04 207.564 17.04C208.18 17.04 208.609 16.9607 208.852 16.802C209.104 16.634 209.23 16.4287 209.23 16.186C209.23 16.0367 209.193 15.9107 209.118 15.808C209.043 15.7053 208.917 15.6167 208.74 15.542C208.572 15.458 208.343 15.388 208.054 15.332L206.416 14.982C205.52 14.7953 204.853 14.4687 204.414 14.002C203.975 13.5353 203.756 12.9333 203.756 12.196C203.756 11.5427 203.929 10.978 204.274 10.502C204.629 10.0167 205.119 9.64333 205.744 9.382C206.379 9.11133 207.107 8.976 207.928 8.976C208.385 8.976 208.824 9.018 209.244 9.102C209.673 9.186 210.07 9.312 210.434 9.48C210.798 9.63867 211.106 9.82533 211.358 10.04L210.644 11.916C210.289 11.6547 209.874 11.454 209.398 11.314C208.931 11.1647 208.432 11.09 207.9 11.09C207.555 11.09 207.261 11.132 207.018 11.216C206.775 11.2907 206.589 11.4027 206.458 11.552C206.337 11.7013 206.276 11.874 206.276 12.07C206.276 12.266 206.355 12.434 206.514 12.574C206.682 12.7047 206.985 12.8167 207.424 12.91L209.048 13.26C209.953 13.456 210.63 13.778 211.078 14.226C211.526 14.674 211.75 15.2573 211.75 15.976C211.75 16.6107 211.577 17.1707 211.232 17.656C210.887 18.132 210.401 18.5007 209.776 18.762C209.151 19.0233 208.413 19.154 207.564 19.154Z" fill="white"/>
<path d="M280.895 19V9.13H283.037L286.439 15.22H285.949L289.337 9.13H291.423V19H289.099V13.134H289.393L286.845 17.544H285.445L282.897 13.12H283.219V19H280.895Z" fill="white"/>
<line x1="1.0083" y1="134" x2="1.0083" y2="38" stroke="black"/>
<path d="M15.88 236.154C14.788 236.154 13.85 235.944 13.066 235.524C12.282 235.104 11.68 234.511 11.26 233.746C10.8493 232.981 10.644 232.085 10.644 231.058C10.644 230.031 10.8493 229.14 11.26 228.384C11.68 227.619 12.282 227.026 13.066 226.606C13.85 226.186 14.788 225.976 15.88 225.976C16.5333 225.976 17.1633 226.074 17.77 226.27C18.3767 226.466 18.8667 226.732 19.24 227.068L18.47 229.098C18.0593 228.799 17.6487 228.58 17.238 228.44C16.8273 228.291 16.4073 228.216 15.978 228.216C15.11 228.216 14.4567 228.463 14.018 228.958C13.5793 229.443 13.36 230.143 13.36 231.058C13.36 231.982 13.5793 232.691 14.018 233.186C14.4567 233.671 15.11 233.914 15.978 233.914C16.4073 233.914 16.8273 233.844 17.238 233.704C17.6487 233.555 18.0593 233.331 18.47 233.032L19.24 235.062C18.8667 235.389 18.3767 235.655 17.77 235.86C17.1633 236.056 16.5333 236.154 15.88 236.154ZM22.6073 236V226.13H29.5793V228.118H25.0713V229.994H29.2573V231.982H25.0713V234.012H29.5793V236H22.6073ZM33.3069 236V226.13H35.1969L40.1249 232.276H39.7329V226.13H42.1129V236H40.2369L35.3089 229.84H35.7009V236H33.3069ZM48.3403 236V228.23H45.2043V226.13H54.0523V228.23H50.9163V236H48.3403ZM57.1261 236V226.13H61.8721C62.9921 226.13 63.8554 226.405 64.4621 226.956C65.0781 227.497 65.3861 228.253 65.3861 229.224C65.3861 229.849 65.2461 230.395 64.9661 230.862C64.6954 231.319 64.2987 231.674 63.7761 231.926C63.2627 232.169 62.6281 232.29 61.8721 232.29L61.9841 232.038H62.6561C63.0574 232.038 63.4121 232.136 63.7201 232.332C64.0281 232.519 64.2847 232.808 64.4901 233.2L66.0301 236H63.2021L61.4941 232.864C61.4194 232.724 61.3307 232.617 61.2281 232.542C61.1254 232.467 61.0087 232.411 60.8781 232.374C60.7567 232.337 60.6214 232.318 60.4721 232.318H59.7021V236H57.1261ZM59.7021 230.498H61.4101C61.9047 230.498 62.2827 230.4 62.5441 230.204C62.8054 230.008 62.9361 229.705 62.9361 229.294C62.9361 228.902 62.8054 228.608 62.5441 228.412C62.2827 228.207 61.9047 228.104 61.4101 228.104H59.7021V230.498ZM69.1108 236V226.13H76.0828V228.118H71.5748V229.994H75.7608V231.982H71.5748V234.012H76.0828V236H69.1108ZM85.9163 236V226.13H92.8043V228.118H88.4923V230.106H92.4963V232.08H88.4923V236H85.9163ZM96.1237 236V226.13H100.87C101.99 226.13 102.853 226.405 103.46 226.956C104.076 227.497 104.384 228.253 104.384 229.224C104.384 229.849 104.244 230.395 103.964 230.862C103.693 231.319 103.296 231.674 102.774 231.926C102.26 232.169 101.626 232.29 100.87 232.29L100.982 232.038H101.654C102.055 232.038 102.41 232.136 102.718 232.332C103.026 232.519 103.282 232.808 103.488 233.2L105.028 236H102.2L100.492 232.864C100.417 232.724 100.328 232.617 100.226 232.542C100.123 232.467 100.006 232.411 99.8757 232.374C99.7544 232.337 99.6191 232.318 99.4697 232.318H98.6997V236H96.1237ZM98.6997 230.498H100.408C100.902 230.498 101.28 230.4 101.542 230.204C101.803 230.008 101.934 229.705 101.934 229.294C101.934 228.902 101.803 228.608 101.542 228.412C101.28 228.207 100.902 228.104 100.408 228.104H98.6997V230.498ZM112.8 236.154C112.053 236.154 111.372 236.033 110.756 235.79C110.14 235.547 109.608 235.202 109.16 234.754C108.721 234.297 108.381 233.755 108.138 233.13C107.905 232.505 107.788 231.814 107.788 231.058C107.788 230.293 107.905 229.597 108.138 228.972C108.381 228.347 108.721 227.81 109.16 227.362C109.608 226.914 110.14 226.573 110.756 226.34C111.372 226.097 112.053 225.976 112.8 225.976C113.547 225.976 114.228 226.097 114.844 226.34C115.46 226.573 115.987 226.914 116.426 227.362C116.874 227.81 117.215 228.347 117.448 228.972C117.691 229.588 117.812 230.279 117.812 231.044C117.812 231.819 117.691 232.519 117.448 233.144C117.215 233.769 116.874 234.311 116.426 234.768C115.987 235.216 115.46 235.561 114.844 235.804C114.228 236.037 113.547 236.154 112.8 236.154ZM112.8 233.998C113.295 233.998 113.715 233.881 114.06 233.648C114.405 233.415 114.671 233.079 114.858 232.64C115.045 232.201 115.138 231.674 115.138 231.058C115.138 230.442 115.045 229.915 114.858 229.476C114.681 229.037 114.415 228.706 114.06 228.482C113.715 228.249 113.295 228.132 112.8 228.132C112.315 228.132 111.895 228.249 111.54 228.482C111.195 228.706 110.929 229.037 110.742 229.476C110.555 229.915 110.462 230.442 110.462 231.058C110.462 231.674 110.551 232.201 110.728 232.64C110.915 233.079 111.185 233.415 111.54 233.648C111.895 233.881 112.315 233.998 112.8 233.998ZM121.433 236V226.13H123.323L128.251 232.276H127.859V226.13H130.239V236H128.363L123.435 229.84H123.827V236H121.433ZM136.466 236V228.23H133.33V226.13H142.178V228.23H139.042V236H136.466ZM10.896 257V247.13H13.472V254.858H17.868V257H10.896ZM21.1855 257V247.13H28.1575V249.118H23.6495V250.994H27.8355V252.982H23.6495V255.012H28.1575V257H21.1855ZM31.8851 257V247.13H33.7751L38.7031 253.276H38.3111V247.13H40.6911V257H38.8151L33.8871 250.84H34.2791V257H31.8851ZM49.6344 257.154C48.5051 257.154 47.5438 256.944 46.7504 256.524C45.9664 256.104 45.3691 255.516 44.9584 254.76C44.5478 254.004 44.3424 253.122 44.3424 252.114C44.3424 251.069 44.5571 250.163 44.9864 249.398C45.4251 248.623 46.0504 248.026 46.8624 247.606C47.6744 247.186 48.6544 246.976 49.8024 246.976C50.2598 246.976 50.7078 247.018 51.1464 247.102C51.5851 247.177 51.9864 247.293 52.3504 247.452C52.7238 247.601 53.0411 247.779 53.3024 247.984L52.5184 249.972C52.0798 249.692 51.6458 249.491 51.2164 249.37C50.7871 249.239 50.3204 249.174 49.8164 249.174C48.8738 249.174 48.1691 249.426 47.7024 249.93C47.2451 250.425 47.0164 251.153 47.0164 252.114C47.0164 253.066 47.2498 253.785 47.7164 254.27C48.1831 254.755 48.8738 254.998 49.7884 254.998C50.0684 254.998 50.3718 254.97 50.6984 254.914C51.0344 254.858 51.3704 254.779 51.7064 254.676L51.2304 255.642V253.248H49.2564V251.442H53.3304V256.398C52.9851 256.557 52.6071 256.692 52.1964 256.804C51.7951 256.916 51.3751 257 50.9364 257.056C50.5071 257.121 50.0731 257.154 49.6344 257.154ZM59.286 257V249.23H56.15V247.13H64.998V249.23H61.862V257H59.286ZM68.0718 257V247.13H70.6478V250.938H74.7218V247.13H77.2838V257H74.7218V253.052H70.6478V257H68.0718Z" fill="black"/>
<path d="M15.88 289.154C14.788 289.154 13.85 288.944 13.066 288.524C12.282 288.104 11.68 287.511 11.26 286.746C10.8493 285.981 10.644 285.085 10.644 284.058C10.644 283.031 10.8493 282.14 11.26 281.384C11.68 280.619 12.282 280.026 13.066 279.606C13.85 279.186 14.788 278.976 15.88 278.976C16.5333 278.976 17.1633 279.074 17.77 279.27C18.3767 279.466 18.8667 279.732 19.24 280.068L18.47 282.098C18.0593 281.799 17.6487 281.58 17.238 281.44C16.8273 281.291 16.4073 281.216 15.978 281.216C15.11 281.216 14.4567 281.463 14.018 281.958C13.5793 282.443 13.36 283.143 13.36 284.058C13.36 284.982 13.5793 285.691 14.018 286.186C14.4567 286.671 15.11 286.914 15.978 286.914C16.4073 286.914 16.8273 286.844 17.238 286.704C17.6487 286.555 18.0593 286.331 18.47 286.032L19.24 288.062C18.8667 288.389 18.3767 288.655 17.77 288.86C17.1633 289.056 16.5333 289.154 15.88 289.154ZM22.6073 289V279.13H25.1833V282.938H29.2573V279.13H31.8193V289H29.2573V285.052H25.1833V289H22.6073ZM35.7132 289V279.13H42.6852V281.118H38.1772V282.994H42.3632V284.982H38.1772V287.012H42.6852V289H35.7132ZM49.9441 289.154C49.4307 289.154 48.9267 289.112 48.4321 289.028C47.9374 288.944 47.4801 288.823 47.0601 288.664C46.6401 288.505 46.2761 288.319 45.9681 288.104L46.6821 286.102C46.9714 286.289 47.2934 286.452 47.6481 286.592C48.0027 286.732 48.3761 286.844 48.7681 286.928C49.1601 287.003 49.5521 287.04 49.9441 287.04C50.5601 287.04 50.9894 286.961 51.2321 286.802C51.4841 286.634 51.6101 286.429 51.6101 286.186C51.6101 286.037 51.5727 285.911 51.4981 285.808C51.4234 285.705 51.2974 285.617 51.1201 285.542C50.9521 285.458 50.7234 285.388 50.4341 285.332L48.7961 284.982C47.9001 284.795 47.2327 284.469 46.7941 284.002C46.3554 283.535 46.1361 282.933 46.1361 282.196C46.1361 281.543 46.3087 280.978 46.6541 280.502C47.0087 280.017 47.4987 279.643 48.1241 279.382C48.7587 279.111 49.4867 278.976 50.3081 278.976C50.7654 278.976 51.2041 279.018 51.6241 279.102C52.0534 279.186 52.4501 279.312 52.8141 279.48C53.1781 279.639 53.4861 279.825 53.7381 280.04L53.0241 281.916C52.6694 281.655 52.2541 281.454 51.7781 281.314C51.3114 281.165 50.8121 281.09 50.2801 281.09C49.9347 281.09 49.6407 281.132 49.3981 281.216C49.1554 281.291 48.9687 281.403 48.8381 281.552C48.7167 281.701 48.6561 281.874 48.6561 282.07C48.6561 282.266 48.7354 282.434 48.8941 282.574C49.0621 282.705 49.3654 282.817 49.8041 282.91L51.4281 283.26C52.3334 283.456 53.0101 283.778 53.4581 284.226C53.9061 284.674 54.1301 285.257 54.1301 285.976C54.1301 286.611 53.9574 287.171 53.6121 287.656C53.2667 288.132 52.7814 288.501 52.1561 288.762C51.5307 289.023 50.7934 289.154 49.9441 289.154ZM59.6141 289V281.23H56.4781V279.13H65.3261V281.23H62.1901V289H59.6141Z" fill="black"/>
<path d="M13.696 324L10.154 314.13H12.786L15.166 321.27H14.508L17.07 314.13H18.89L21.298 321.27H20.738L23.174 314.13H25.652L22.082 324H20.024L17.742 317.574H18.092L15.754 324H13.696ZM26.6673 324L31.2873 314.13H33.3173L37.9373 324H35.3613L34.1993 321.284L35.1793 321.998H29.4113L30.4053 321.284L29.2433 324H26.6673ZM32.2813 316.818L30.6573 320.696L30.2653 320.024H34.3393L33.9473 320.696L32.3093 316.818H32.2813ZM40.6351 324V314.13H43.2111V324H40.6351ZM50.7644 324.154C50.2511 324.154 49.7471 324.112 49.2524 324.028C48.7577 323.944 48.3004 323.823 47.8804 323.664C47.4604 323.505 47.0964 323.319 46.7884 323.104L47.5024 321.102C47.7917 321.289 48.1137 321.452 48.4684 321.592C48.8231 321.732 49.1964 321.844 49.5884 321.928C49.9804 322.003 50.3724 322.04 50.7644 322.04C51.3804 322.04 51.8097 321.961 52.0524 321.802C52.3044 321.634 52.4304 321.429 52.4304 321.186C52.4304 321.037 52.3931 320.911 52.3184 320.808C52.2437 320.705 52.1177 320.617 51.9404 320.542C51.7724 320.458 51.5437 320.388 51.2544 320.332L49.6164 319.982C48.7204 319.795 48.0531 319.469 47.6144 319.002C47.1757 318.535 46.9564 317.933 46.9564 317.196C46.9564 316.543 47.1291 315.978 47.4744 315.502C47.8291 315.017 48.3191 314.643 48.9444 314.382C49.5791 314.111 50.3071 313.976 51.1284 313.976C51.5857 313.976 52.0244 314.018 52.4444 314.102C52.8737 314.186 53.2704 314.312 53.6344 314.48C53.9984 314.639 54.3064 314.825 54.5584 315.04L53.8444 316.916C53.4897 316.655 53.0744 316.454 52.5984 316.314C52.1317 316.165 51.6324 316.09 51.1004 316.09C50.7551 316.09 50.4611 316.132 50.2184 316.216C49.9757 316.291 49.7891 316.403 49.6584 316.552C49.5371 316.701 49.4764 316.874 49.4764 317.07C49.4764 317.266 49.5557 317.434 49.7144 317.574C49.8824 317.705 50.1857 317.817 50.6244 317.91L52.2484 318.26C53.1537 318.456 53.8304 318.778 54.2784 319.226C54.7264 319.674 54.9504 320.257 54.9504 320.976C54.9504 321.611 54.7777 322.171 54.4324 322.656C54.0871 323.132 53.6017 323.501 52.9764 323.762C52.3511 324.023 51.6137 324.154 50.7644 324.154ZM60.4345 324V316.23H57.2985V314.13H66.1465V316.23H63.0105V324H60.4345ZM78.1261 324L74.5841 314.13H77.2161L79.5961 321.27H78.9381L81.5001 314.13H83.3201L85.7281 321.27H85.1681L87.6041 314.13H90.0821L86.5121 324H84.4541L82.1721 317.574H82.5221L80.1841 324H78.1261ZM93.2171 324V314.13H95.7931V324H93.2171ZM99.6784 324V314.13H103.766C104.905 314.13 105.876 314.326 106.678 314.718C107.481 315.101 108.092 315.661 108.512 316.398C108.942 317.126 109.156 318.013 109.156 319.058C109.156 320.103 108.942 320.995 108.512 321.732C108.092 322.469 107.481 323.034 106.678 323.426C105.876 323.809 104.905 324 103.766 324H99.6784ZM102.254 321.914H103.598C104.578 321.914 105.302 321.681 105.768 321.214C106.244 320.738 106.482 320.019 106.482 319.058C106.482 318.087 106.244 317.373 105.768 316.916C105.292 316.449 104.569 316.216 103.598 316.216H102.254V321.914ZM114.534 324V316.23H111.398V314.13H120.246V316.23H117.11V324H114.534ZM123.32 324V314.13H125.896V317.938H129.97V314.13H132.532V324H129.97V320.052H125.896V324H123.32Z" fill="black"/>
<rect x="2" y="190" width="315" height="27" fill="black"/>
<path d="M194.715 247.126C193.931 247.126 193.264 246.939 192.713 246.566C192.172 246.183 191.761 245.633 191.481 244.914C191.201 244.195 191.061 243.327 191.061 242.31C191.061 241.171 191.215 240.21 191.523 239.426C191.841 238.633 192.298 238.031 192.895 237.62C193.502 237.209 194.221 237.004 195.051 237.004C195.387 237.004 195.728 237.055 196.073 237.158C196.419 237.251 196.741 237.387 197.039 237.564C197.347 237.741 197.609 237.951 197.823 238.194L197.403 239.09C197.058 238.726 196.68 238.46 196.269 238.292C195.868 238.115 195.453 238.026 195.023 238.026C194.566 238.026 194.16 238.11 193.805 238.278C193.46 238.446 193.161 238.703 192.909 239.048C192.667 239.384 192.485 239.809 192.363 240.322C192.242 240.826 192.181 241.414 192.181 242.086V243.388H192.055C192.111 242.856 192.265 242.399 192.517 242.016C192.779 241.624 193.11 241.325 193.511 241.12C193.913 240.915 194.365 240.812 194.869 240.812C195.448 240.812 195.961 240.943 196.409 241.204C196.857 241.465 197.207 241.834 197.459 242.31C197.711 242.777 197.837 243.313 197.837 243.92C197.837 244.536 197.707 245.087 197.445 245.572C197.184 246.057 196.815 246.44 196.339 246.72C195.863 246.991 195.322 247.126 194.715 247.126ZM194.631 246.146C195.042 246.146 195.406 246.057 195.723 245.88C196.041 245.693 196.288 245.437 196.465 245.11C196.643 244.774 196.731 244.391 196.731 243.962C196.731 243.533 196.643 243.155 196.465 242.828C196.288 242.501 196.041 242.245 195.723 242.058C195.415 241.871 195.051 241.778 194.631 241.778C194.221 241.778 193.857 241.871 193.539 242.058C193.222 242.245 192.975 242.501 192.797 242.828C192.62 243.155 192.531 243.533 192.531 243.962C192.531 244.391 192.62 244.774 192.797 245.11C192.975 245.437 193.222 245.693 193.539 245.88C193.857 246.057 194.221 246.146 194.631 246.146ZM204.748 247.126C204.309 247.126 203.885 247.079 203.474 246.986C203.073 246.893 202.695 246.762 202.34 246.594C201.985 246.417 201.673 246.202 201.402 245.95L201.822 245.04C202.279 245.413 202.741 245.684 203.208 245.852C203.675 246.02 204.179 246.104 204.72 246.104C205.196 246.104 205.597 246.034 205.924 245.894C206.251 245.754 206.498 245.549 206.666 245.278C206.834 244.998 206.918 244.657 206.918 244.256C206.918 243.677 206.727 243.239 206.344 242.94C205.961 242.641 205.406 242.492 204.678 242.492H203.222V241.498H204.58C205.009 241.498 205.373 241.423 205.672 241.274C205.98 241.125 206.218 240.915 206.386 240.644C206.554 240.364 206.638 240.028 206.638 239.636C206.638 239.113 206.47 238.717 206.134 238.446C205.798 238.166 205.313 238.026 204.678 238.026C204.155 238.026 203.675 238.119 203.236 238.306C202.797 238.483 202.382 238.763 201.99 239.146L201.57 238.25C201.943 237.858 202.41 237.555 202.97 237.34C203.539 237.116 204.132 237.004 204.748 237.004C205.383 237.004 205.924 237.107 206.372 237.312C206.829 237.508 207.179 237.797 207.422 238.18C207.665 238.553 207.786 239.006 207.786 239.538C207.786 240.145 207.618 240.667 207.282 241.106C206.946 241.535 206.489 241.829 205.91 241.988V241.834C206.367 241.909 206.755 242.058 207.072 242.282C207.399 242.506 207.646 242.795 207.814 243.15C207.982 243.495 208.066 243.892 208.066 244.34C208.066 244.909 207.931 245.404 207.66 245.824C207.399 246.235 207.021 246.557 206.526 246.79C206.031 247.014 205.439 247.126 204.748 247.126ZM212.036 247V245.572H213.464V247H212.036ZM220.85 247.126C220.43 247.126 220.019 247.079 219.618 246.986C219.217 246.893 218.839 246.757 218.484 246.58C218.139 246.403 217.831 246.193 217.56 245.95L217.994 245.04C218.442 245.404 218.895 245.675 219.352 245.852C219.819 246.02 220.313 246.104 220.836 246.104C221.527 246.104 222.063 245.913 222.446 245.53C222.838 245.147 223.034 244.643 223.034 244.018C223.034 243.374 222.847 242.847 222.474 242.436C222.101 242.025 221.587 241.82 220.934 241.82C220.458 241.82 220.038 241.918 219.674 242.114C219.319 242.301 218.997 242.595 218.708 242.996H217.868V237.13H223.594V238.11H219.002V242.044H218.694C218.937 241.652 219.273 241.353 219.702 241.148C220.131 240.933 220.612 240.826 221.144 240.826C221.769 240.826 222.306 240.957 222.754 241.218C223.211 241.479 223.561 241.848 223.804 242.324C224.056 242.791 224.182 243.337 224.182 243.962C224.182 244.578 224.047 245.124 223.776 245.6C223.505 246.076 223.123 246.449 222.628 246.72C222.133 246.991 221.541 247.126 220.85 247.126Z" fill="black"/>
<path d="M272.715 247.126C271.931 247.126 271.264 246.939 270.713 246.566C270.172 246.183 269.761 245.633 269.481 244.914C269.201 244.195 269.061 243.327 269.061 242.31C269.061 241.171 269.215 240.21 269.523 239.426C269.841 238.633 270.298 238.031 270.895 237.62C271.502 237.209 272.221 237.004 273.051 237.004C273.387 237.004 273.728 237.055 274.073 237.158C274.419 237.251 274.741 237.387 275.039 237.564C275.347 237.741 275.609 237.951 275.823 238.194L275.403 239.09C275.058 238.726 274.68 238.46 274.269 238.292C273.868 238.115 273.453 238.026 273.023 238.026C272.566 238.026 272.16 238.11 271.805 238.278C271.46 238.446 271.161 238.703 270.909 239.048C270.667 239.384 270.485 239.809 270.363 240.322C270.242 240.826 270.181 241.414 270.181 242.086V243.388H270.055C270.111 242.856 270.265 242.399 270.517 242.016C270.779 241.624 271.11 241.325 271.511 241.12C271.913 240.915 272.365 240.812 272.869 240.812C273.448 240.812 273.961 240.943 274.409 241.204C274.857 241.465 275.207 241.834 275.459 242.31C275.711 242.777 275.837 243.313 275.837 243.92C275.837 244.536 275.707 245.087 275.445 245.572C275.184 246.057 274.815 246.44 274.339 246.72C273.863 246.991 273.322 247.126 272.715 247.126ZM272.631 246.146C273.042 246.146 273.406 246.057 273.723 245.88C274.041 245.693 274.288 245.437 274.465 245.11C274.643 244.774 274.731 244.391 274.731 243.962C274.731 243.533 274.643 243.155 274.465 242.828C274.288 242.501 274.041 242.245 273.723 242.058C273.415 241.871 273.051 241.778 272.631 241.778C272.221 241.778 271.857 241.871 271.539 242.058C271.222 242.245 270.975 242.501 270.797 242.828C270.62 243.155 270.531 243.533 270.531 243.962C270.531 244.391 270.62 244.774 270.797 245.11C270.975 245.437 271.222 245.693 271.539 245.88C271.857 246.057 272.221 246.146 272.631 246.146ZM283.07 247.126C282.65 247.126 282.239 247.079 281.838 246.986C281.437 246.893 281.059 246.757 280.704 246.58C280.359 246.403 280.051 246.193 279.78 245.95L280.214 245.04C280.662 245.404 281.115 245.675 281.572 245.852C282.039 246.02 282.533 246.104 283.056 246.104C283.747 246.104 284.283 245.913 284.666 245.53C285.058 245.147 285.254 244.643 285.254 244.018C285.254 243.374 285.067 242.847 284.694 242.436C284.321 242.025 283.807 241.82 283.154 241.82C282.678 241.82 282.258 241.918 281.894 242.114C281.539 242.301 281.217 242.595 280.928 242.996H280.088V237.13H285.814V238.11H281.222V242.044H280.914C281.157 241.652 281.493 241.353 281.922 241.148C282.351 240.933 282.832 240.826 283.364 240.826C283.989 240.826 284.526 240.957 284.974 241.218C285.431 241.479 285.781 241.848 286.024 242.324C286.276 242.791 286.402 243.337 286.402 243.962C286.402 244.578 286.267 245.124 285.996 245.6C285.725 246.076 285.343 246.449 284.848 246.72C284.353 246.991 283.761 247.126 283.07 247.126ZM290.036 247V245.572H291.464V247H290.036ZM298.85 247.126C298.43 247.126 298.019 247.079 297.618 246.986C297.217 246.893 296.839 246.757 296.484 246.58C296.139 246.403 295.831 246.193 295.56 245.95L295.994 245.04C296.442 245.404 296.895 245.675 297.352 245.852C297.819 246.02 298.313 246.104 298.836 246.104C299.527 246.104 300.063 245.913 300.446 245.53C300.838 245.147 301.034 244.643 301.034 244.018C301.034 243.374 300.847 242.847 300.474 242.436C300.101 242.025 299.587 241.82 298.934 241.82C298.458 241.82 298.038 241.918 297.674 242.114C297.319 242.301 296.997 242.595 296.708 242.996H295.868V237.13H301.594V238.11H297.002V242.044H296.694C296.937 241.652 297.273 241.353 297.702 241.148C298.131 240.933 298.612 240.826 299.144 240.826C299.769 240.826 300.306 240.957 300.754 241.218C301.211 241.479 301.561 241.848 301.804 242.324C302.056 242.791 302.182 243.337 302.182 243.962C302.182 244.578 302.047 245.124 301.776 245.6C301.505 246.076 301.123 246.449 300.628 246.72C300.133 246.991 299.541 247.126 298.85 247.126Z" fill="black"/>
<path d="M182.325 289.126C181.989 289.126 181.648 289.079 181.303 288.986C180.958 288.883 180.631 288.743 180.323 288.566C180.024 288.389 179.763 288.179 179.539 287.936L179.973 287.026C180.309 287.39 180.682 287.661 181.093 287.838C181.504 288.015 181.919 288.104 182.339 288.104C182.796 288.104 183.202 288.02 183.557 287.852C183.912 287.684 184.21 287.432 184.453 287.096C184.696 286.751 184.878 286.326 184.999 285.822C185.13 285.309 185.195 284.716 185.195 284.044V282.742H185.307C185.251 283.265 185.092 283.722 184.831 284.114C184.579 284.506 184.252 284.805 183.851 285.01C183.45 285.215 182.997 285.318 182.493 285.318C181.914 285.318 181.401 285.187 180.953 284.926C180.514 284.665 180.164 284.296 179.903 283.82C179.651 283.344 179.525 282.807 179.525 282.21C179.525 281.585 179.656 281.034 179.917 280.558C180.188 280.073 180.556 279.695 181.023 279.424C181.499 279.144 182.045 279.004 182.661 279.004C183.436 279.004 184.094 279.195 184.635 279.578C185.186 279.951 185.601 280.497 185.881 281.216C186.161 281.935 186.301 282.803 186.301 283.82C186.301 284.949 186.142 285.911 185.825 286.704C185.517 287.497 185.064 288.099 184.467 288.51C183.879 288.921 183.165 289.126 182.325 289.126ZM182.745 284.352C183.156 284.352 183.52 284.259 183.837 284.072C184.154 283.885 184.402 283.629 184.579 283.302C184.756 282.975 184.845 282.597 184.845 282.168C184.845 281.729 184.756 281.347 184.579 281.02C184.402 280.693 184.154 280.437 183.837 280.25C183.52 280.063 183.156 279.97 182.745 279.97C182.325 279.97 181.956 280.063 181.639 280.25C181.331 280.437 181.084 280.693 180.897 281.02C180.72 281.347 180.631 281.729 180.631 282.168C180.631 282.597 180.72 282.975 180.897 283.302C181.084 283.629 181.331 283.885 181.639 284.072C181.956 284.259 182.325 284.352 182.745 284.352ZM193.841 289.126C193.057 289.126 192.39 288.939 191.839 288.566C191.298 288.183 190.887 287.633 190.607 286.914C190.327 286.195 190.187 285.327 190.187 284.31C190.187 283.171 190.341 282.21 190.649 281.426C190.967 280.633 191.424 280.031 192.021 279.62C192.628 279.209 193.347 279.004 194.177 279.004C194.513 279.004 194.854 279.055 195.199 279.158C195.545 279.251 195.867 279.387 196.165 279.564C196.473 279.741 196.735 279.951 196.949 280.194L196.529 281.09C196.184 280.726 195.806 280.46 195.395 280.292C194.994 280.115 194.579 280.026 194.149 280.026C193.692 280.026 193.286 280.11 192.931 280.278C192.586 280.446 192.287 280.703 192.035 281.048C191.793 281.384 191.611 281.809 191.489 282.322C191.368 282.826 191.307 283.414 191.307 284.086V285.388H191.181C191.237 284.856 191.391 284.399 191.643 284.016C191.905 283.624 192.236 283.325 192.637 283.12C193.039 282.915 193.491 282.812 193.995 282.812C194.574 282.812 195.087 282.943 195.535 283.204C195.983 283.465 196.333 283.834 196.585 284.31C196.837 284.777 196.963 285.313 196.963 285.92C196.963 286.536 196.833 287.087 196.571 287.572C196.31 288.057 195.941 288.44 195.465 288.72C194.989 288.991 194.448 289.126 193.841 289.126ZM193.757 288.146C194.168 288.146 194.532 288.057 194.849 287.88C195.167 287.693 195.414 287.437 195.591 287.11C195.769 286.774 195.857 286.391 195.857 285.962C195.857 285.533 195.769 285.155 195.591 284.828C195.414 284.501 195.167 284.245 194.849 284.058C194.541 283.871 194.177 283.778 193.757 283.778C193.347 283.778 192.983 283.871 192.665 284.058C192.348 284.245 192.101 284.501 191.923 284.828C191.746 285.155 191.657 285.533 191.657 285.962C191.657 286.391 191.746 286.774 191.923 287.11C192.101 287.437 192.348 287.693 192.665 287.88C192.983 288.057 193.347 288.146 193.757 288.146ZM200.794 285.738V284.8H204.714V285.738H200.794ZM209.556 289V288.02H211.81V280.124H212.412L210.032 281.636L209.542 280.782L212.132 279.13H212.958V288.02H215.072V289H209.556ZM222.514 289.126C221.767 289.126 221.133 288.935 220.61 288.552C220.097 288.16 219.709 287.586 219.448 286.83C219.187 286.074 219.056 285.15 219.056 284.058C219.056 282.957 219.187 282.033 219.448 281.286C219.709 280.53 220.097 279.961 220.61 279.578C221.133 279.195 221.767 279.004 222.514 279.004C223.27 279.004 223.905 279.195 224.418 279.578C224.931 279.961 225.319 280.525 225.58 281.272C225.841 282.019 225.972 282.943 225.972 284.044C225.972 285.145 225.841 286.074 225.58 286.83C225.319 287.586 224.931 288.16 224.418 288.552C223.905 288.935 223.27 289.126 222.514 289.126ZM222.514 288.132C223.298 288.132 223.877 287.801 224.25 287.138C224.633 286.475 224.824 285.444 224.824 284.044C224.824 282.644 224.637 281.622 224.264 280.978C223.891 280.325 223.307 279.998 222.514 279.998C221.739 279.998 221.161 280.325 220.778 280.978C220.395 281.631 220.204 282.653 220.204 284.044C220.204 285.444 220.391 286.475 220.764 287.138C221.147 287.801 221.73 288.132 222.514 288.132ZM234.087 289V286.886H229.537V286.018L234.283 279.13H235.249V285.906H236.719V286.886H235.249V289H234.087ZM234.087 285.906V280.516H234.423L230.517 286.214V285.906H234.087Z" fill="black"/>
<path d="M188.244 324.126C187.133 324.126 186.27 323.888 185.654 323.412C185.038 322.927 184.73 322.25 184.73 321.382C184.73 320.925 184.823 320.519 185.01 320.164C185.197 319.8 185.458 319.506 185.794 319.282C186.13 319.058 186.517 318.918 186.956 318.862V319.072C186.555 318.979 186.205 318.82 185.906 318.596C185.607 318.363 185.374 318.078 185.206 317.742C185.047 317.406 184.968 317.037 184.968 316.636C184.968 315.805 185.262 315.161 185.85 314.704C186.447 314.237 187.245 314.004 188.244 314.004C189.252 314.004 190.05 314.237 190.638 314.704C191.235 315.161 191.534 315.805 191.534 316.636C191.534 317.037 191.45 317.411 191.282 317.756C191.123 318.092 190.895 318.372 190.596 318.596C190.297 318.82 189.947 318.974 189.546 319.058V318.862C189.985 318.918 190.367 319.063 190.694 319.296C191.03 319.52 191.291 319.809 191.478 320.164C191.665 320.519 191.758 320.925 191.758 321.382C191.758 322.25 191.45 322.927 190.834 323.412C190.218 323.888 189.355 324.126 188.244 324.126ZM188.244 323.174C189.037 323.174 189.635 323.02 190.036 322.712C190.447 322.404 190.652 321.937 190.652 321.312C190.652 320.696 190.447 320.239 190.036 319.94C189.635 319.632 189.037 319.478 188.244 319.478C187.46 319.478 186.863 319.632 186.452 319.94C186.041 320.239 185.836 320.696 185.836 321.312C185.836 321.937 186.041 322.404 186.452 322.712C186.863 323.02 187.46 323.174 188.244 323.174ZM188.244 318.526C188.935 318.526 189.471 318.367 189.854 318.05C190.237 317.733 190.428 317.294 190.428 316.734C190.428 316.174 190.237 315.74 189.854 315.432C189.471 315.115 188.935 314.956 188.244 314.956C187.563 314.956 187.031 315.115 186.648 315.432C186.265 315.74 186.074 316.174 186.074 316.734C186.074 317.294 186.265 317.733 186.648 318.05C187.031 318.367 187.563 318.526 188.244 318.526ZM198.739 324.126C197.628 324.126 196.765 323.888 196.149 323.412C195.533 322.927 195.225 322.25 195.225 321.382C195.225 320.925 195.318 320.519 195.505 320.164C195.691 319.8 195.953 319.506 196.289 319.282C196.625 319.058 197.012 318.918 197.451 318.862V319.072C197.049 318.979 196.699 318.82 196.401 318.596C196.102 318.363 195.869 318.078 195.701 317.742C195.542 317.406 195.463 317.037 195.463 316.636C195.463 315.805 195.757 315.161 196.345 314.704C196.942 314.237 197.74 314.004 198.739 314.004C199.747 314.004 200.545 314.237 201.133 314.704C201.73 315.161 202.029 315.805 202.029 316.636C202.029 317.037 201.945 317.411 201.777 317.756C201.618 318.092 201.389 318.372 201.091 318.596C200.792 318.82 200.442 318.974 200.041 319.058V318.862C200.479 318.918 200.862 319.063 201.189 319.296C201.525 319.52 201.786 319.809 201.973 320.164C202.159 320.519 202.253 320.925 202.253 321.382C202.253 322.25 201.945 322.927 201.329 323.412C200.713 323.888 199.849 324.126 198.739 324.126ZM198.739 323.174C199.532 323.174 200.129 323.02 200.531 322.712C200.941 322.404 201.147 321.937 201.147 321.312C201.147 320.696 200.941 320.239 200.531 319.94C200.129 319.632 199.532 319.478 198.739 319.478C197.955 319.478 197.357 319.632 196.947 319.94C196.536 320.239 196.331 320.696 196.331 321.312C196.331 321.937 196.536 322.404 196.947 322.712C197.357 323.02 197.955 323.174 198.739 323.174ZM198.739 318.526C199.429 318.526 199.966 318.367 200.349 318.05C200.731 317.733 200.923 317.294 200.923 316.734C200.923 316.174 200.731 315.74 200.349 315.432C199.966 315.115 199.429 314.956 198.739 314.956C198.057 314.956 197.525 315.115 197.143 315.432C196.76 315.74 196.569 316.174 196.569 316.734C196.569 317.294 196.76 317.733 197.143 318.05C197.525 318.367 198.057 318.526 198.739 318.526ZM206.041 320.738V319.8H209.961V320.738H206.041ZM216.595 324.126C216.259 324.126 215.918 324.079 215.573 323.986C215.227 323.883 214.901 323.743 214.593 323.566C214.294 323.389 214.033 323.179 213.809 322.936L214.243 322.026C214.579 322.39 214.952 322.661 215.363 322.838C215.773 323.015 216.189 323.104 216.609 323.104C217.066 323.104 217.472 323.02 217.827 322.852C218.181 322.684 218.48 322.432 218.723 322.096C218.965 321.751 219.147 321.326 219.269 320.822C219.399 320.309 219.465 319.716 219.465 319.044V317.742H219.577C219.521 318.265 219.362 318.722 219.101 319.114C218.849 319.506 218.522 319.805 218.121 320.01C217.719 320.215 217.267 320.318 216.763 320.318C216.184 320.318 215.671 320.187 215.223 319.926C214.784 319.665 214.434 319.296 214.173 318.82C213.921 318.344 213.795 317.807 213.795 317.21C213.795 316.585 213.925 316.034 214.187 315.558C214.457 315.073 214.826 314.695 215.293 314.424C215.769 314.144 216.315 314.004 216.931 314.004C217.705 314.004 218.363 314.195 218.905 314.578C219.455 314.951 219.871 315.497 220.151 316.216C220.431 316.935 220.571 317.803 220.571 318.82C220.571 319.949 220.412 320.911 220.095 321.704C219.787 322.497 219.334 323.099 218.737 323.51C218.149 323.921 217.435 324.126 216.595 324.126ZM217.015 319.352C217.425 319.352 217.789 319.259 218.107 319.072C218.424 318.885 218.671 318.629 218.849 318.302C219.026 317.975 219.115 317.597 219.115 317.168C219.115 316.729 219.026 316.347 218.849 316.02C218.671 315.693 218.424 315.437 218.107 315.25C217.789 315.063 217.425 314.97 217.015 314.97C216.595 314.97 216.226 315.063 215.909 315.25C215.601 315.437 215.353 315.693 215.167 316.02C214.989 316.347 214.901 316.729 214.901 317.168C214.901 317.597 214.989 317.975 215.167 318.302C215.353 318.629 215.601 318.885 215.909 319.072C216.226 319.259 216.595 319.352 217.015 319.352ZM228.111 324.126C227.327 324.126 226.66 323.939 226.109 323.566C225.568 323.183 225.157 322.633 224.877 321.914C224.597 321.195 224.457 320.327 224.457 319.31C224.457 318.171 224.611 317.21 224.919 316.426C225.237 315.633 225.694 315.031 226.291 314.62C226.898 314.209 227.617 314.004 228.447 314.004C228.783 314.004 229.124 314.055 229.469 314.158C229.815 314.251 230.137 314.387 230.435 314.564C230.743 314.741 231.005 314.951 231.219 315.194L230.799 316.09C230.454 315.726 230.076 315.46 229.665 315.292C229.264 315.115 228.849 315.026 228.419 315.026C227.962 315.026 227.556 315.11 227.201 315.278C226.856 315.446 226.557 315.703 226.305 316.048C226.063 316.384 225.881 316.809 225.759 317.322C225.638 317.826 225.577 318.414 225.577 319.086V320.388H225.451C225.507 319.856 225.661 319.399 225.913 319.016C226.175 318.624 226.506 318.325 226.907 318.12C227.309 317.915 227.761 317.812 228.265 317.812C228.844 317.812 229.357 317.943 229.805 318.204C230.253 318.465 230.603 318.834 230.855 319.31C231.107 319.777 231.233 320.313 231.233 320.92C231.233 321.536 231.103 322.087 230.841 322.572C230.58 323.057 230.211 323.44 229.735 323.72C229.259 323.991 228.718 324.126 228.111 324.126ZM228.027 323.146C228.438 323.146 228.802 323.057 229.119 322.88C229.437 322.693 229.684 322.437 229.861 322.11C230.039 321.774 230.127 321.391 230.127 320.962C230.127 320.533 230.039 320.155 229.861 319.828C229.684 319.501 229.437 319.245 229.119 319.058C228.811 318.871 228.447 318.778 228.027 318.778C227.617 318.778 227.253 318.871 226.935 319.058C226.618 319.245 226.371 319.501 226.193 319.828C226.016 320.155 225.927 320.533 225.927 320.962C225.927 321.391 226.016 321.774 226.193 322.11C226.371 322.437 226.618 322.693 226.935 322.88C227.253 323.057 227.617 323.146 228.027 323.146Z" fill="black"/>
<path d="M258.825 324.126C258.489 324.126 258.148 324.079 257.803 323.986C257.458 323.883 257.131 323.743 256.823 323.566C256.524 323.389 256.263 323.179 256.039 322.936L256.473 322.026C256.809 322.39 257.182 322.661 257.593 322.838C258.004 323.015 258.419 323.104 258.839 323.104C259.296 323.104 259.702 323.02 260.057 322.852C260.412 322.684 260.71 322.432 260.953 322.096C261.196 321.751 261.378 321.326 261.499 320.822C261.63 320.309 261.695 319.716 261.695 319.044V317.742H261.807C261.751 318.265 261.592 318.722 261.331 319.114C261.079 319.506 260.752 319.805 260.351 320.01C259.95 320.215 259.497 320.318 258.993 320.318C258.414 320.318 257.901 320.187 257.453 319.926C257.014 319.665 256.664 319.296 256.403 318.82C256.151 318.344 256.025 317.807 256.025 317.21C256.025 316.585 256.156 316.034 256.417 315.558C256.688 315.073 257.056 314.695 257.523 314.424C257.999 314.144 258.545 314.004 259.161 314.004C259.936 314.004 260.594 314.195 261.135 314.578C261.686 314.951 262.101 315.497 262.381 316.216C262.661 316.935 262.801 317.803 262.801 318.82C262.801 319.949 262.642 320.911 262.325 321.704C262.017 322.497 261.564 323.099 260.967 323.51C260.379 323.921 259.665 324.126 258.825 324.126ZM259.245 319.352C259.656 319.352 260.02 319.259 260.337 319.072C260.654 318.885 260.902 318.629 261.079 318.302C261.256 317.975 261.345 317.597 261.345 317.168C261.345 316.729 261.256 316.347 261.079 316.02C260.902 315.693 260.654 315.437 260.337 315.25C260.02 315.063 259.656 314.97 259.245 314.97C258.825 314.97 258.456 315.063 258.139 315.25C257.831 315.437 257.584 315.693 257.397 316.02C257.22 316.347 257.131 316.729 257.131 317.168C257.131 317.597 257.22 317.975 257.397 318.302C257.584 318.629 257.831 318.885 258.139 319.072C258.456 319.259 258.825 319.352 259.245 319.352ZM271.069 324V321.886H266.519V321.018L271.265 314.13H272.231V320.906H273.701V321.886H272.231V324H271.069ZM271.069 320.906V315.516H271.405L267.499 321.214V320.906H271.069ZM277.294 320.738V319.8H281.214V320.738H277.294ZM286.056 324V323.02H288.31V315.124H288.912L286.532 316.636L286.042 315.782L288.632 314.13H289.458V323.02H291.572V324H286.056ZM299.014 324.126C298.267 324.126 297.633 323.935 297.11 323.552C296.597 323.16 296.209 322.586 295.948 321.83C295.687 321.074 295.556 320.15 295.556 319.058C295.556 317.957 295.687 317.033 295.948 316.286C296.209 315.53 296.597 314.961 297.11 314.578C297.633 314.195 298.267 314.004 299.014 314.004C299.77 314.004 300.405 314.195 300.918 314.578C301.431 314.961 301.819 315.525 302.08 316.272C302.341 317.019 302.472 317.943 302.472 319.044C302.472 320.145 302.341 321.074 302.08 321.83C301.819 322.586 301.431 323.16 300.918 323.552C300.405 323.935 299.77 324.126 299.014 324.126ZM299.014 323.132C299.798 323.132 300.377 322.801 300.75 322.138C301.133 321.475 301.324 320.444 301.324 319.044C301.324 317.644 301.137 316.622 300.764 315.978C300.391 315.325 299.807 314.998 299.014 314.998C298.239 314.998 297.661 315.325 297.278 315.978C296.895 316.631 296.704 317.653 296.704 319.044C296.704 320.444 296.891 321.475 297.264 322.138C297.647 322.801 298.23 323.132 299.014 323.132ZM310.587 324V321.886H306.037V321.018L310.783 314.13H311.749V320.906H313.219V321.886H311.749V324H310.587ZM310.587 320.906V315.516H310.923L307.017 321.214V320.906H310.587Z" fill="black"/>
<path d="M251.786 289V288.02H254.04V280.124H254.642L252.262 281.636L251.772 280.782L254.362 279.13H255.188V288.02H257.302V289H251.786ZM264.744 289.126C263.997 289.126 263.363 288.935 262.84 288.552C262.327 288.16 261.939 287.586 261.678 286.83C261.417 286.074 261.286 285.15 261.286 284.058C261.286 282.957 261.417 282.033 261.678 281.286C261.939 280.53 262.327 279.961 262.84 279.578C263.363 279.195 263.997 279.004 264.744 279.004C265.5 279.004 266.135 279.195 266.648 279.578C267.161 279.961 267.549 280.525 267.81 281.272C268.071 282.019 268.202 282.943 268.202 284.044C268.202 285.145 268.071 286.074 267.81 286.83C267.549 287.586 267.161 288.16 266.648 288.552C266.135 288.935 265.5 289.126 264.744 289.126ZM264.744 288.132C265.528 288.132 266.107 287.801 266.48 287.138C266.863 286.475 267.054 285.444 267.054 284.044C267.054 282.644 266.867 281.622 266.494 280.978C266.121 280.325 265.537 279.998 264.744 279.998C263.969 279.998 263.391 280.325 263.008 280.978C262.625 281.631 262.434 282.653 262.434 284.044C262.434 285.444 262.621 286.475 262.994 287.138C263.377 287.801 263.96 288.132 264.744 288.132ZM272.299 289V288.132L275.673 284.492C275.99 284.147 276.247 283.825 276.443 283.526C276.639 283.218 276.783 282.919 276.877 282.63C276.97 282.341 277.017 282.047 277.017 281.748C277.017 281.188 276.844 280.763 276.499 280.474C276.163 280.175 275.668 280.026 275.015 280.026C274.511 280.026 274.039 280.119 273.601 280.306C273.171 280.483 272.761 280.763 272.369 281.146L271.935 280.25C272.299 279.877 272.761 279.578 273.321 279.354C273.89 279.121 274.487 279.004 275.113 279.004C275.775 279.004 276.335 279.107 276.793 279.312C277.25 279.517 277.595 279.821 277.829 280.222C278.062 280.614 278.179 281.095 278.179 281.664C278.179 281.963 278.141 282.257 278.067 282.546C278.001 282.826 277.894 283.111 277.745 283.4C277.605 283.68 277.423 283.969 277.199 284.268C276.984 284.567 276.723 284.875 276.415 285.192L273.447 288.342V288.02H278.585V289H272.299ZM282.541 285.738V284.8H286.461V285.738H282.541ZM291.303 289V288.02H293.557V280.124H294.159L291.779 281.636L291.289 280.782L293.879 279.13H294.705V288.02H296.819V289H291.303ZM301.797 289V288.02H304.051V280.124H304.653L302.273 281.636L301.783 280.782L304.373 279.13H305.199V288.02H307.313V289H301.797ZM314.756 289.126C314.009 289.126 313.375 288.935 312.852 288.552C312.339 288.16 311.951 287.586 311.69 286.83C311.429 286.074 311.298 285.15 311.298 284.058C311.298 282.957 311.429 282.033 311.69 281.286C311.951 280.53 312.339 279.961 312.852 279.578C313.375 279.195 314.009 279.004 314.756 279.004C315.512 279.004 316.147 279.195 316.66 279.578C317.173 279.961 317.561 280.525 317.822 281.272C318.083 282.019 318.214 282.943 318.214 284.044C318.214 285.145 318.083 286.074 317.822 286.83C317.561 287.586 317.173 288.16 316.66 288.552C316.147 288.935 315.512 289.126 314.756 289.126ZM314.756 288.132C315.54 288.132 316.119 287.801 316.492 287.138C316.875 286.475 317.066 285.444 317.066 284.044C317.066 282.644 316.879 281.622 316.506 280.978C316.133 280.325 315.549 279.998 314.756 279.998C313.981 279.998 313.403 280.325 313.02 280.978C312.637 281.631 312.446 282.653 312.446 284.044C312.446 285.444 312.633 286.475 313.006 287.138C313.389 287.801 313.972 288.132 314.756 288.132Z" fill="black"/>
<path d="M204.896 209V199.13H207.472V206.858H211.868V209H204.896Z" fill="white"/>
<path d="M275.118 209L279.332 203.442V204.604L275.202 199.13H278.184L280.774 202.728H279.934L282.524 199.13H285.52L281.376 204.604V203.442L285.59 209H282.594L279.948 205.318H280.76L278.114 209H275.118ZM288.239 209V199.13H290.815V206.858H295.211V209H288.239Z" fill="white"/>
<line x1="2.0083" y1="324" x2="2.0083" y2="228" stroke="black"/>
</svg>
