<svg width="620" height="144" viewBox="0 0 620 144" fill="none" xmlns="http://www.w3.org/2000/svg">
<path d="M20.88 47.154C19.788 47.154 18.85 46.944 18.066 46.524C17.282 46.104 16.68 45.5113 16.26 44.746C15.8493 43.9807 15.644 43.0847 15.644 42.058C15.644 41.0313 15.8493 40.14 16.26 39.384C16.68 38.6187 17.282 38.026 18.066 37.606C18.85 37.186 19.788 36.976 20.88 36.976C21.5333 36.976 22.1633 37.074 22.77 37.27C23.3767 37.466 23.8667 37.732 24.24 38.068L23.47 40.098C23.0593 39.7993 22.6487 39.58 22.238 39.44C21.8273 39.2907 21.4073 39.216 20.978 39.216C20.11 39.216 19.4567 39.4633 19.018 39.958C18.5793 40.4433 18.36 41.1433 18.36 42.058C18.36 42.982 18.5793 43.6913 19.018 44.186C19.4567 44.6713 20.11 44.914 20.978 44.914C21.4073 44.914 21.8273 44.844 22.238 44.704C22.6487 44.5547 23.0593 44.3307 23.47 44.032L24.24 46.062C23.8667 46.3887 23.3767 46.6547 22.77 46.86C22.1633 47.056 21.5333 47.154 20.88 47.154ZM27.6073 47V37.13H34.5793V39.118H30.0713V40.994H34.2573V42.982H30.0713V45.012H34.5793V47H27.6073ZM38.3069 47V37.13H40.1969L45.1249 43.276H44.7329V37.13H47.1129V47H45.2369L40.3089 40.84H40.7009V47H38.3069ZM53.3403 47V39.23H50.2043V37.13H59.0523V39.23H55.9163V47H53.3403ZM62.1261 47V37.13H66.8721C67.9921 37.13 68.8554 37.4053 69.4621 37.956C70.0781 38.4973 70.3861 39.2533 70.3861 40.224C70.3861 40.8493 70.2461 41.3953 69.9661 41.862C69.6954 42.3193 69.2987 42.674 68.7761 42.926C68.2627 43.1687 67.6281 43.29 66.8721 43.29L66.9841 43.038H67.6561C68.0574 43.038 68.4121 43.136 68.7201 43.332C69.0281 43.5187 69.2847 43.808 69.4901 44.2L71.0301 47H68.2021L66.4941 43.864C66.4194 43.724 66.3307 43.6167 66.2281 43.542C66.1254 43.4673 66.0087 43.4113 65.8781 43.374C65.7567 43.3367 65.6214 43.318 65.4721 43.318H64.7021V47H62.1261ZM64.7021 41.498H66.4101C66.9047 41.498 67.2827 41.4 67.5441 41.204C67.8054 41.008 67.9361 40.7047 67.9361 40.294C67.9361 39.902 67.8054 39.608 67.5441 39.412C67.2827 39.2067 66.9047 39.104 66.4101 39.104H64.7021V41.498ZM74.1108 47V37.13H81.0828V39.118H76.5748V40.994H80.7608V42.982H76.5748V45.012H81.0828V47H74.1108ZM90.9163 47V37.13H97.8043V39.118H93.4923V41.106H97.4963V43.08H93.4923V47H90.9163ZM101.124 47V37.13H105.87C106.99 37.13 107.853 37.4053 108.46 37.956C109.076 38.4973 109.384 39.2533 109.384 40.224C109.384 40.8493 109.244 41.3953 108.964 41.862C108.693 42.3193 108.296 42.674 107.774 42.926C107.26 43.1687 106.626 43.29 105.87 43.29L105.982 43.038H106.654C107.055 43.038 107.41 43.136 107.718 43.332C108.026 43.5187 108.282 43.808 108.488 44.2L110.028 47H107.2L105.492 43.864C105.417 43.724 105.328 43.6167 105.226 43.542C105.123 43.4673 105.006 43.4113 104.876 43.374C104.754 43.3367 104.619 43.318 104.47 43.318H103.7V47H101.124ZM103.7 41.498H105.408C105.902 41.498 106.28 41.4 106.542 41.204C106.803 41.008 106.934 40.7047 106.934 40.294C106.934 39.902 106.803 39.608 106.542 39.412C106.28 39.2067 105.902 39.104 105.408 39.104H103.7V41.498ZM117.8 47.154C117.053 47.154 116.372 47.0327 115.756 46.79C115.14 46.5473 114.608 46.202 114.16 45.754C113.721 45.2967 113.381 44.7553 113.138 44.13C112.905 43.5047 112.788 42.814 112.788 42.058C112.788 41.2927 112.905 40.5973 113.138 39.972C113.381 39.3467 113.721 38.81 114.16 38.362C114.608 37.914 115.14 37.5733 115.756 37.34C116.372 37.0973 117.053 36.976 117.8 36.976C118.547 36.976 119.228 37.0973 119.844 37.34C120.46 37.5733 120.987 37.914 121.426 38.362C121.874 38.81 122.215 39.3467 122.448 39.972C122.691 40.588 122.812 41.2787 122.812 42.044C122.812 42.8187 122.691 43.5187 122.448 44.144C122.215 44.7693 121.874 45.3107 121.426 45.768C120.987 46.216 120.46 46.5613 119.844 46.804C119.228 47.0373 118.547 47.154 117.8 47.154ZM117.8 44.998C118.295 44.998 118.715 44.8813 119.06 44.648C119.405 44.4147 119.671 44.0787 119.858 43.64C120.045 43.2013 120.138 42.674 120.138 42.058C120.138 41.442 120.045 40.9147 119.858 40.476C119.681 40.0373 119.415 39.706 119.06 39.482C118.715 39.2487 118.295 39.132 117.8 39.132C117.315 39.132 116.895 39.2487 116.54 39.482C116.195 39.706 115.929 40.0373 115.742 40.476C115.555 40.9147 115.462 41.442 115.462 42.058C115.462 42.674 115.551 43.2013 115.728 43.64C115.915 44.0787 116.185 44.4147 116.54 44.648C116.895 44.8813 117.315 44.998 117.8 44.998ZM126.433 47V37.13H128.323L133.251 43.276H132.859V37.13H135.239V47H133.363L128.435 40.84H128.827V47H126.433ZM141.466 47V39.23H138.33V37.13H147.178V39.23H144.042V47H141.466ZM15.896 68V58.13H18.472V65.858H22.868V68H15.896ZM26.1855 68V58.13H33.1575V60.118H28.6495V61.994H32.8355V63.982H28.6495V66.012H33.1575V68H26.1855ZM36.8851 68V58.13H38.7751L43.7031 64.276H43.3111V58.13H45.6911V68H43.8151L38.8871 61.84H39.2791V68H36.8851ZM54.6344 68.154C53.5051 68.154 52.5438 67.944 51.7504 67.524C50.9664 67.104 50.3691 66.516 49.9584 65.76C49.5478 65.004 49.3424 64.122 49.3424 63.114C49.3424 62.0687 49.5571 61.1633 49.9864 60.398C50.4251 59.6233 51.0504 59.026 51.8624 58.606C52.6744 58.186 53.6544 57.976 54.8024 57.976C55.2598 57.976 55.7078 58.018 56.1464 58.102C56.5851 58.1767 56.9864 58.2933 57.3504 58.452C57.7238 58.6013 58.0411 58.7787 58.3024 58.984L57.5184 60.972C57.0798 60.692 56.6458 60.4913 56.2164 60.37C55.7871 60.2393 55.3204 60.174 54.8164 60.174C53.8738 60.174 53.1691 60.426 52.7024 60.93C52.2451 61.4247 52.0164 62.1527 52.0164 63.114C52.0164 64.066 52.2498 64.7847 52.7164 65.27C53.1831 65.7553 53.8738 65.998 54.7884 65.998C55.0684 65.998 55.3718 65.97 55.6984 65.914C56.0344 65.858 56.3704 65.7787 56.7064 65.676L56.2304 66.642V64.248H54.2564V62.442H58.3304V67.398C57.9851 67.5567 57.6071 67.692 57.1964 67.804C56.7951 67.916 56.3751 68 55.9364 68.056C55.5071 68.1213 55.0731 68.154 54.6344 68.154ZM64.286 68V60.23H61.15V58.13H69.998V60.23H66.862V68H64.286ZM73.0718 68V58.13H75.6478V61.938H79.7218V58.13H82.2838V68H79.7218V64.052H75.6478V68H73.0718Z" fill="white"/>
<path d="M20.88 100.154C19.788 100.154 18.85 99.944 18.066 99.524C17.282 99.104 16.68 98.5113 16.26 97.746C15.8493 96.9807 15.644 96.0847 15.644 95.058C15.644 94.0313 15.8493 93.14 16.26 92.384C16.68 91.6187 17.282 91.026 18.066 90.606C18.85 90.186 19.788 89.976 20.88 89.976C21.5333 89.976 22.1633 90.074 22.77 90.27C23.3767 90.466 23.8667 90.732 24.24 91.068L23.47 93.098C23.0593 92.7993 22.6487 92.58 22.238 92.44C21.8273 92.2907 21.4073 92.216 20.978 92.216C20.11 92.216 19.4567 92.4633 19.018 92.958C18.5793 93.4433 18.36 94.1433 18.36 95.058C18.36 95.982 18.5793 96.6913 19.018 97.186C19.4567 97.6713 20.11 97.914 20.978 97.914C21.4073 97.914 21.8273 97.844 22.238 97.704C22.6487 97.5547 23.0593 97.3307 23.47 97.032L24.24 99.062C23.8667 99.3887 23.3767 99.6547 22.77 99.86C22.1633 100.056 21.5333 100.154 20.88 100.154ZM27.6073 100V90.13H30.1833V93.938H34.2573V90.13H36.8193V100H34.2573V96.052H30.1833V100H27.6073ZM40.7132 100V90.13H47.6852V92.118H43.1772V93.994H47.3632V95.982H43.1772V98.012H47.6852V100H40.7132ZM54.9441 100.154C54.4307 100.154 53.9267 100.112 53.4321 100.028C52.9374 99.944 52.4801 99.8227 52.0601 99.664C51.6401 99.5053 51.2761 99.3187 50.9681 99.104L51.6821 97.102C51.9714 97.2887 52.2934 97.452 52.6481 97.592C53.0027 97.732 53.3761 97.844 53.7681 97.928C54.1601 98.0027 54.5521 98.04 54.9441 98.04C55.5601 98.04 55.9894 97.9607 56.2321 97.802C56.4841 97.634 56.6101 97.4287 56.6101 97.186C56.6101 97.0367 56.5727 96.9107 56.4981 96.808C56.4234 96.7053 56.2974 96.6167 56.1201 96.542C55.9521 96.458 55.7234 96.388 55.4341 96.332L53.7961 95.982C52.9001 95.7953 52.2327 95.4687 51.7941 95.002C51.3554 94.5353 51.1361 93.9333 51.1361 93.196C51.1361 92.5427 51.3087 91.978 51.6541 91.502C52.0087 91.0167 52.4987 90.6433 53.1241 90.382C53.7587 90.1113 54.4867 89.976 55.3081 89.976C55.7654 89.976 56.2041 90.018 56.6241 90.102C57.0534 90.186 57.4501 90.312 57.8141 90.48C58.1781 90.6387 58.4861 90.8253 58.7381 91.04L58.0241 92.916C57.6694 92.6547 57.2541 92.454 56.7781 92.314C56.3114 92.1647 55.8121 92.09 55.2801 92.09C54.9347 92.09 54.6407 92.132 54.3981 92.216C54.1554 92.2907 53.9687 92.4027 53.8381 92.552C53.7167 92.7013 53.6561 92.874 53.6561 93.07C53.6561 93.266 53.7354 93.434 53.8941 93.574C54.0621 93.7047 54.3654 93.8167 54.8041 93.91L56.4281 94.26C57.3334 94.456 58.0101 94.778 58.4581 95.226C58.9061 95.674 59.1301 96.2573 59.1301 96.976C59.1301 97.6107 58.9574 98.1707 58.6121 98.656C58.2667 99.132 57.7814 99.5007 57.1561 99.762C56.5307 100.023 55.7934 100.154 54.9441 100.154ZM64.6141 100V92.23H61.4781V90.13H70.3261V92.23H67.1901V100H64.6141Z" fill="white"/>
<path d="M18.696 135L15.154 125.13H17.786L20.166 132.27H19.508L22.07 125.13H23.89L26.298 132.27H25.738L28.174 125.13H30.652L27.082 135H25.024L22.742 128.574H23.092L20.754 135H18.696ZM31.6673 135L36.2873 125.13H38.3173L42.9373 135H40.3613L39.1993 132.284L40.1793 132.998H34.4113L35.4053 132.284L34.2433 135H31.6673ZM37.2813 127.818L35.6573 131.696L35.2653 131.024H39.3393L38.9473 131.696L37.3093 127.818H37.2813ZM45.6351 135V125.13H48.2111V135H45.6351ZM55.7644 135.154C55.2511 135.154 54.7471 135.112 54.2524 135.028C53.7577 134.944 53.3004 134.823 52.8804 134.664C52.4604 134.505 52.0964 134.319 51.7884 134.104L52.5024 132.102C52.7917 132.289 53.1137 132.452 53.4684 132.592C53.8231 132.732 54.1964 132.844 54.5884 132.928C54.9804 133.003 55.3724 133.04 55.7644 133.04C56.3804 133.04 56.8097 132.961 57.0524 132.802C57.3044 132.634 57.4304 132.429 57.4304 132.186C57.4304 132.037 57.3931 131.911 57.3184 131.808C57.2437 131.705 57.1177 131.617 56.9404 131.542C56.7724 131.458 56.5437 131.388 56.2544 131.332L54.6164 130.982C53.7204 130.795 53.0531 130.469 52.6144 130.002C52.1757 129.535 51.9564 128.933 51.9564 128.196C51.9564 127.543 52.1291 126.978 52.4744 126.502C52.8291 126.017 53.3191 125.643 53.9444 125.382C54.5791 125.111 55.3071 124.976 56.1284 124.976C56.5857 124.976 57.0244 125.018 57.4444 125.102C57.8737 125.186 58.2704 125.312 58.6344 125.48C58.9984 125.639 59.3064 125.825 59.5584 126.04L58.8444 127.916C58.4897 127.655 58.0744 127.454 57.5984 127.314C57.1317 127.165 56.6324 127.09 56.1004 127.09C55.7551 127.09 55.4611 127.132 55.2184 127.216C54.9757 127.291 54.7891 127.403 54.6584 127.552C54.5371 127.701 54.4764 127.874 54.4764 128.07C54.4764 128.266 54.5557 128.434 54.7144 128.574C54.8824 128.705 55.1857 128.817 55.6244 128.91L57.2484 129.26C58.1537 129.456 58.8304 129.778 59.2784 130.226C59.7264 130.674 59.9504 131.257 59.9504 131.976C59.9504 132.611 59.7777 133.171 59.4324 133.656C59.0871 134.132 58.6017 134.501 57.9764 134.762C57.3511 135.023 56.6137 135.154 55.7644 135.154ZM65.4345 135V127.23H62.2985V125.13H71.1465V127.23H68.0105V135H65.4345ZM83.1261 135L79.5841 125.13H82.2161L84.5961 132.27H83.9381L86.5001 125.13H88.3201L90.7281 132.27H90.1681L92.6041 125.13H95.0821L91.5121 135H89.4541L87.1721 128.574H87.5221L85.1841 135H83.1261ZM98.2171 135V125.13H100.793V135H98.2171ZM104.678 135V125.13H108.766C109.905 125.13 110.876 125.326 111.678 125.718C112.481 126.101 113.092 126.661 113.512 127.398C113.942 128.126 114.156 129.013 114.156 130.058C114.156 131.103 113.942 131.995 113.512 132.732C113.092 133.469 112.481 134.034 111.678 134.426C110.876 134.809 109.905 135 108.766 135H104.678ZM107.254 132.914H108.598C109.578 132.914 110.302 132.681 110.768 132.214C111.244 131.738 111.482 131.019 111.482 130.058C111.482 129.087 111.244 128.373 110.768 127.916C110.292 127.449 109.569 127.216 108.598 127.216H107.254V132.914ZM119.534 135V127.23H116.398V125.13H125.246V127.23H122.11V135H119.534ZM128.32 135V125.13H130.896V128.938H134.97V125.13H137.532V135H134.97V131.052H130.896V135H128.32Z" fill="white"/>
<rect y="1" width="620" height="27" fill="white"/>
<path d="M197.388 58.126C196.968 58.126 196.557 58.0793 196.156 57.986C195.755 57.8927 195.377 57.7573 195.022 57.58C194.677 57.4027 194.369 57.1927 194.098 56.95L194.532 56.04C194.98 56.404 195.433 56.6747 195.89 56.852C196.357 57.02 196.851 57.104 197.374 57.104C198.065 57.104 198.601 56.9127 198.984 56.53C199.376 56.1473 199.572 55.6433 199.572 55.018C199.572 54.374 199.385 53.8467 199.012 53.436C198.639 53.0253 198.125 52.82 197.472 52.82C196.996 52.82 196.576 52.918 196.212 53.114C195.857 53.3007 195.535 53.5947 195.246 53.996H194.406V48.13H200.132V49.11H195.54V53.044H195.232C195.475 52.652 195.811 52.3533 196.24 52.148C196.669 51.9333 197.15 51.826 197.682 51.826C198.307 51.826 198.844 51.9567 199.292 52.218C199.749 52.4793 200.099 52.848 200.342 53.324C200.594 53.7907 200.72 54.3367 200.72 54.962C200.72 55.578 200.585 56.124 200.314 56.6C200.043 57.076 199.661 57.4493 199.166 57.72C198.671 57.9907 198.079 58.126 197.388 58.126ZM207.001 58.126C206.665 58.126 206.324 58.0793 205.979 57.986C205.633 57.8833 205.307 57.7433 204.999 57.566C204.7 57.3887 204.439 57.1787 204.215 56.936L204.649 56.026C204.985 56.39 205.358 56.6607 205.769 56.838C206.179 57.0153 206.595 57.104 207.015 57.104C207.472 57.104 207.878 57.02 208.233 56.852C208.587 56.684 208.886 56.432 209.129 56.096C209.371 55.7507 209.553 55.326 209.675 54.822C209.805 54.3087 209.871 53.716 209.871 53.044V51.742H209.983C209.927 52.2647 209.768 52.722 209.507 53.114C209.255 53.506 208.928 53.8047 208.527 54.01C208.125 54.2153 207.673 54.318 207.169 54.318C206.59 54.318 206.077 54.1873 205.629 53.926C205.19 53.6647 204.84 53.296 204.579 52.82C204.327 52.344 204.201 51.8073 204.201 51.21C204.201 50.5847 204.331 50.034 204.593 49.558C204.863 49.0727 205.232 48.6947 205.699 48.424C206.175 48.144 206.721 48.004 207.337 48.004C208.111 48.004 208.769 48.1953 209.311 48.578C209.861 48.9513 210.277 49.4973 210.557 50.216C210.837 50.9347 210.977 51.8027 210.977 52.82C210.977 53.9493 210.818 54.9107 210.501 55.704C210.193 56.4973 209.74 57.0993 209.143 57.51C208.555 57.9207 207.841 58.126 207.001 58.126ZM207.421 53.352C207.831 53.352 208.195 53.2587 208.513 53.072C208.83 52.8853 209.077 52.6287 209.255 52.302C209.432 51.9753 209.521 51.5973 209.521 51.168C209.521 50.7293 209.432 50.3467 209.255 50.02C209.077 49.6933 208.83 49.4367 208.513 49.25C208.195 49.0633 207.831 48.97 207.421 48.97C207.001 48.97 206.632 49.0633 206.315 49.25C206.007 49.4367 205.759 49.6933 205.573 50.02C205.395 50.3467 205.307 50.7293 205.307 51.168C205.307 51.5973 205.395 51.9753 205.573 52.302C205.759 52.6287 206.007 52.8853 206.315 53.072C206.632 53.2587 207.001 53.352 207.421 53.352ZM214.849 58V56.572H216.277V58H214.849ZM223.663 58.126C223.243 58.126 222.832 58.0793 222.431 57.986C222.029 57.8927 221.651 57.7573 221.297 57.58C220.951 57.4027 220.643 57.1927 220.373 56.95L220.807 56.04C221.255 56.404 221.707 56.6747 222.165 56.852C222.631 57.02 223.126 57.104 223.649 57.104C224.339 57.104 224.876 56.9127 225.259 56.53C225.651 56.1473 225.847 55.6433 225.847 55.018C225.847 54.374 225.66 53.8467 225.287 53.436C224.913 53.0253 224.4 52.82 223.747 52.82C223.271 52.82 222.851 52.918 222.487 53.114C222.132 53.3007 221.81 53.5947 221.521 53.996H220.681V48.13H226.407V49.11H221.815V53.044H221.507C221.749 52.652 222.085 52.3533 222.515 52.148C222.944 51.9333 223.425 51.826 223.957 51.826C224.582 51.826 225.119 51.9567 225.567 52.218C226.024 52.4793 226.374 52.848 226.617 53.324C226.869 53.7907 226.995 54.3367 226.995 54.962C226.995 55.578 226.859 56.124 226.589 56.6C226.318 57.076 225.935 57.4493 225.441 57.72C224.946 57.9907 224.353 58.126 223.663 58.126Z" fill="white"/>
<path d="M322.848 59.126C322.064 59.126 321.397 58.9393 320.846 58.566C320.305 58.1833 319.894 57.6327 319.614 56.914C319.334 56.1953 319.194 55.3273 319.194 54.31C319.194 53.1713 319.348 52.21 319.656 51.426C319.974 50.6327 320.431 50.0307 321.028 49.62C321.635 49.2093 322.354 49.004 323.184 49.004C323.52 49.004 323.861 49.0553 324.206 49.158C324.552 49.2513 324.874 49.3867 325.172 49.564C325.48 49.7413 325.742 49.9513 325.956 50.194L325.536 51.09C325.191 50.726 324.813 50.46 324.402 50.292C324.001 50.1147 323.586 50.026 323.156 50.026C322.699 50.026 322.293 50.11 321.938 50.278C321.593 50.446 321.294 50.7027 321.042 51.048C320.8 51.384 320.618 51.8087 320.496 52.322C320.375 52.826 320.314 53.414 320.314 54.086V55.388H320.188C320.244 54.856 320.398 54.3987 320.65 54.016C320.912 53.624 321.243 53.3253 321.644 53.12C322.046 52.9147 322.498 52.812 323.002 52.812C323.581 52.812 324.094 52.9427 324.542 53.204C324.99 53.4653 325.34 53.834 325.592 54.31C325.844 54.7767 325.97 55.3133 325.97 55.92C325.97 56.536 325.84 57.0867 325.578 57.572C325.317 58.0573 324.948 58.44 324.472 58.72C323.996 58.9907 323.455 59.126 322.848 59.126ZM322.764 58.146C323.175 58.146 323.539 58.0573 323.856 57.88C324.174 57.6933 324.421 57.4367 324.598 57.11C324.776 56.774 324.864 56.3913 324.864 55.962C324.864 55.5327 324.776 55.1547 324.598 54.828C324.421 54.5013 324.174 54.2447 323.856 54.058C323.548 53.8713 323.184 53.778 322.764 53.778C322.354 53.778 321.99 53.8713 321.672 54.058C321.355 54.2447 321.108 54.5013 320.93 54.828C320.753 55.1547 320.664 55.5327 320.664 55.962C320.664 56.3913 320.753 56.774 320.93 57.11C321.108 57.4367 321.355 57.6933 321.672 57.88C321.99 58.0573 322.354 58.146 322.764 58.146ZM330.529 59V58.02H332.783V50.124H333.385L331.005 51.636L330.515 50.782L333.105 49.13H333.931V58.02H336.045V59H330.529ZM340.169 59V57.572H341.597V59H340.169ZM348.983 59.126C348.563 59.126 348.152 59.0793 347.751 58.986C347.35 58.8927 346.972 58.7573 346.617 58.58C346.272 58.4027 345.964 58.1927 345.693 57.95L346.127 57.04C346.575 57.404 347.028 57.6747 347.485 57.852C347.952 58.02 348.446 58.104 348.969 58.104C349.66 58.104 350.196 57.9127 350.579 57.53C350.971 57.1473 351.167 56.6433 351.167 56.018C351.167 55.374 350.98 54.8467 350.607 54.436C350.234 54.0253 349.72 53.82 349.067 53.82C348.591 53.82 348.171 53.918 347.807 54.114C347.452 54.3007 347.13 54.5947 346.841 54.996H346.001V49.13H351.727V50.11H347.135V54.044H346.827C347.07 53.652 347.406 53.3533 347.835 53.148C348.264 52.9333 348.745 52.826 349.277 52.826C349.902 52.826 350.439 52.9567 350.887 53.218C351.344 53.4793 351.694 53.848 351.937 54.324C352.189 54.7907 352.315 55.3367 352.315 55.962C352.315 56.578 352.18 57.124 351.909 57.6C351.638 58.076 351.256 58.4493 350.761 58.72C350.266 58.9907 349.674 59.126 348.983 59.126Z" fill="white"/>
<path d="M443.182 59.126C442.398 59.126 441.731 58.9393 441.18 58.566C440.639 58.1833 440.228 57.6327 439.948 56.914C439.668 56.1953 439.528 55.3273 439.528 54.31C439.528 53.1713 439.682 52.21 439.99 51.426C440.308 50.6327 440.765 50.0307 441.362 49.62C441.969 49.2093 442.688 49.004 443.518 49.004C443.854 49.004 444.195 49.0553 444.54 49.158C444.886 49.2513 445.208 49.3867 445.506 49.564C445.814 49.7413 446.076 49.9513 446.29 50.194L445.87 51.09C445.525 50.726 445.147 50.46 444.736 50.292C444.335 50.1147 443.92 50.026 443.49 50.026C443.033 50.026 442.627 50.11 442.272 50.278C441.927 50.446 441.628 50.7027 441.376 51.048C441.134 51.384 440.952 51.8087 440.83 52.322C440.709 52.826 440.648 53.414 440.648 54.086V55.388H440.522C440.578 54.856 440.732 54.3987 440.984 54.016C441.246 53.624 441.577 53.3253 441.978 53.12C442.38 52.9147 442.832 52.812 443.336 52.812C443.915 52.812 444.428 52.9427 444.876 53.204C445.324 53.4653 445.674 53.834 445.926 54.31C446.178 54.7767 446.304 55.3133 446.304 55.92C446.304 56.536 446.174 57.0867 445.912 57.572C445.651 58.0573 445.282 58.44 444.806 58.72C444.33 58.9907 443.789 59.126 443.182 59.126ZM443.098 58.146C443.509 58.146 443.873 58.0573 444.19 57.88C444.508 57.6933 444.755 57.4367 444.932 57.11C445.11 56.774 445.198 56.3913 445.198 55.962C445.198 55.5327 445.11 55.1547 444.932 54.828C444.755 54.5013 444.508 54.2447 444.19 54.058C443.882 53.8713 443.518 53.778 443.098 53.778C442.688 53.778 442.324 53.8713 442.006 54.058C441.689 54.2447 441.442 54.5013 441.264 54.828C441.087 55.1547 440.998 55.5327 440.998 55.962C440.998 56.3913 441.087 56.774 441.264 57.11C441.442 57.4367 441.689 57.6933 442.006 57.88C442.324 58.0573 442.688 58.146 443.098 58.146ZM453.215 59.126C452.776 59.126 452.352 59.0793 451.941 58.986C451.54 58.8927 451.162 58.762 450.807 58.594C450.452 58.4167 450.14 58.202 449.869 57.95L450.289 57.04C450.746 57.4133 451.208 57.684 451.675 57.852C452.142 58.02 452.646 58.104 453.187 58.104C453.663 58.104 454.064 58.034 454.391 57.894C454.718 57.754 454.965 57.5487 455.133 57.278C455.301 56.998 455.385 56.6573 455.385 56.256C455.385 55.6773 455.194 55.2387 454.811 54.94C454.428 54.6413 453.873 54.492 453.145 54.492H451.689V53.498H453.047C453.476 53.498 453.84 53.4233 454.139 53.274C454.447 53.1247 454.685 52.9147 454.853 52.644C455.021 52.364 455.105 52.028 455.105 51.636C455.105 51.1133 454.937 50.7167 454.601 50.446C454.265 50.166 453.78 50.026 453.145 50.026C452.622 50.026 452.142 50.1193 451.703 50.306C451.264 50.4833 450.849 50.7633 450.457 51.146L450.037 50.25C450.41 49.858 450.877 49.5547 451.437 49.34C452.006 49.116 452.599 49.004 453.215 49.004C453.85 49.004 454.391 49.1067 454.839 49.312C455.296 49.508 455.646 49.7973 455.889 50.18C456.132 50.5533 456.253 51.006 456.253 51.538C456.253 52.1447 456.085 52.6673 455.749 53.106C455.413 53.5353 454.956 53.8293 454.377 53.988V53.834C454.834 53.9087 455.222 54.058 455.539 54.282C455.866 54.506 456.113 54.7953 456.281 55.15C456.449 55.4953 456.533 55.892 456.533 56.34C456.533 56.9093 456.398 57.404 456.127 57.824C455.866 58.2347 455.488 58.5567 454.993 58.79C454.498 59.014 453.906 59.126 453.215 59.126ZM460.503 59V57.572H461.931V59H460.503ZM469.317 59.126C468.897 59.126 468.486 59.0793 468.085 58.986C467.684 58.8927 467.306 58.7573 466.951 58.58C466.606 58.4027 466.298 58.1927 466.027 57.95L466.461 57.04C466.909 57.404 467.362 57.6747 467.819 57.852C468.286 58.02 468.78 58.104 469.303 58.104C469.994 58.104 470.53 57.9127 470.913 57.53C471.305 57.1473 471.501 56.6433 471.501 56.018C471.501 55.374 471.314 54.8467 470.941 54.436C470.568 54.0253 470.054 53.82 469.401 53.82C468.925 53.82 468.505 53.918 468.141 54.114C467.786 54.3007 467.464 54.5947 467.175 54.996H466.335V49.13H472.061V50.11H467.469V54.044H467.161C467.404 53.652 467.74 53.3533 468.169 53.148C468.598 52.9333 469.079 52.826 469.611 52.826C470.236 52.826 470.773 52.9567 471.221 53.218C471.678 53.4793 472.028 53.848 472.271 54.324C472.523 54.7907 472.649 55.3367 472.649 55.962C472.649 56.578 472.514 57.124 472.243 57.6C471.972 58.076 471.59 58.4493 471.095 58.72C470.6 58.9907 470.008 59.126 469.317 59.126Z" fill="white"/>
<path d="M563.516 59.126C562.732 59.126 562.065 58.9393 561.514 58.566C560.973 58.1833 560.562 57.6327 560.282 56.914C560.002 56.1953 559.862 55.3273 559.862 54.31C559.862 53.1713 560.016 52.21 560.324 51.426C560.641 50.6327 561.099 50.0307 561.696 49.62C562.303 49.2093 563.021 49.004 563.852 49.004C564.188 49.004 564.529 49.0553 564.874 49.158C565.219 49.2513 565.541 49.3867 565.84 49.564C566.148 49.7413 566.409 49.9513 566.624 50.194L566.204 51.09C565.859 50.726 565.481 50.46 565.07 50.292C564.669 50.1147 564.253 50.026 563.824 50.026C563.367 50.026 562.961 50.11 562.606 50.278C562.261 50.446 561.962 50.7027 561.71 51.048C561.467 51.384 561.285 51.8087 561.164 52.322C561.043 52.826 560.982 53.414 560.982 54.086V55.388H560.856C560.912 54.856 561.066 54.3987 561.318 54.016C561.579 53.624 561.911 53.3253 562.312 53.12C562.713 52.9147 563.166 52.812 563.67 52.812C564.249 52.812 564.762 52.9427 565.21 53.204C565.658 53.4653 566.008 53.834 566.26 54.31C566.512 54.7767 566.638 55.3133 566.638 55.92C566.638 56.536 566.507 57.0867 566.246 57.572C565.985 58.0573 565.616 58.44 565.14 58.72C564.664 58.9907 564.123 59.126 563.516 59.126ZM563.432 58.146C563.843 58.146 564.207 58.0573 564.524 57.88C564.841 57.6933 565.089 57.4367 565.266 57.11C565.443 56.774 565.532 56.3913 565.532 55.962C565.532 55.5327 565.443 55.1547 565.266 54.828C565.089 54.5013 564.841 54.2447 564.524 54.058C564.216 53.8713 563.852 53.778 563.432 53.778C563.021 53.778 562.657 53.8713 562.34 54.058C562.023 54.2447 561.775 54.5013 561.598 54.828C561.421 55.1547 561.332 55.5327 561.332 55.962C561.332 56.3913 561.421 56.774 561.598 57.11C561.775 57.4367 562.023 57.6933 562.34 57.88C562.657 58.0573 563.021 58.146 563.432 58.146ZM573.87 59.126C573.45 59.126 573.04 59.0793 572.638 58.986C572.237 58.8927 571.859 58.7573 571.504 58.58C571.159 58.4027 570.851 58.1927 570.58 57.95L571.014 57.04C571.462 57.404 571.915 57.6747 572.372 57.852C572.839 58.02 573.334 58.104 573.856 58.104C574.547 58.104 575.084 57.9127 575.466 57.53C575.858 57.1473 576.054 56.6433 576.054 56.018C576.054 55.374 575.868 54.8467 575.494 54.436C575.121 54.0253 574.608 53.82 573.954 53.82C573.478 53.82 573.058 53.918 572.694 54.114C572.34 54.3007 572.018 54.5947 571.728 54.996H570.888V49.13H576.614V50.11H572.022V54.044H571.714C571.957 53.652 572.293 53.3533 572.722 53.148C573.152 52.9333 573.632 52.826 574.164 52.826C574.79 52.826 575.326 52.9567 575.774 53.218C576.232 53.4793 576.582 53.848 576.824 54.324C577.076 54.7907 577.202 55.3367 577.202 55.962C577.202 56.578 577.067 57.124 576.796 57.6C576.526 58.076 576.143 58.4493 575.648 58.72C575.154 58.9907 574.561 59.126 573.87 59.126ZM580.837 59V57.572H582.265V59H580.837ZM589.65 59.126C589.23 59.126 588.82 59.0793 588.418 58.986C588.017 58.8927 587.639 58.7573 587.284 58.58C586.939 58.4027 586.631 58.1927 586.36 57.95L586.794 57.04C587.242 57.404 587.695 57.6747 588.152 57.852C588.619 58.02 589.114 58.104 589.636 58.104C590.327 58.104 590.864 57.9127 591.246 57.53C591.638 57.1473 591.834 56.6433 591.834 56.018C591.834 55.374 591.648 54.8467 591.274 54.436C590.901 54.0253 590.388 53.82 589.734 53.82C589.258 53.82 588.838 53.918 588.474 54.114C588.12 54.3007 587.798 54.5947 587.508 54.996H586.668V49.13H592.394V50.11H587.802V54.044H587.494C587.737 53.652 588.073 53.3533 588.502 53.148C588.932 52.9333 589.412 52.826 589.944 52.826C590.57 52.826 591.106 52.9567 591.554 53.218C592.012 53.4793 592.362 53.848 592.604 54.324C592.856 54.7907 592.982 55.3367 592.982 55.962C592.982 56.578 592.847 57.124 592.576 57.6C592.306 58.076 591.923 58.4493 591.428 58.72C590.934 58.9907 590.341 59.126 589.65 59.126Z" fill="white"/>
<path d="M193.644 100.126C192.533 100.126 191.67 99.888 191.054 99.412C190.438 98.9267 190.13 98.25 190.13 97.382C190.13 96.9247 190.223 96.5187 190.41 96.164C190.597 95.8 190.858 95.506 191.194 95.282C191.53 95.058 191.917 94.918 192.356 94.862V95.072C191.955 94.9787 191.605 94.82 191.306 94.596C191.007 94.3627 190.774 94.078 190.606 93.742C190.447 93.406 190.368 93.0373 190.368 92.636C190.368 91.8053 190.662 91.1613 191.25 90.704C191.847 90.2373 192.645 90.004 193.644 90.004C194.652 90.004 195.45 90.2373 196.038 90.704C196.635 91.1613 196.934 91.8053 196.934 92.636C196.934 93.0373 196.85 93.4107 196.682 93.756C196.523 94.092 196.295 94.372 195.996 94.596C195.697 94.82 195.347 94.974 194.946 95.058V94.862C195.385 94.918 195.767 95.0627 196.094 95.296C196.43 95.52 196.691 95.8093 196.878 96.164C197.065 96.5187 197.158 96.9247 197.158 97.382C197.158 98.25 196.85 98.9267 196.234 99.412C195.618 99.888 194.755 100.126 193.644 100.126ZM193.644 99.174C194.437 99.174 195.035 99.02 195.436 98.712C195.847 98.404 196.052 97.9373 196.052 97.312C196.052 96.696 195.847 96.2387 195.436 95.94C195.035 95.632 194.437 95.478 193.644 95.478C192.86 95.478 192.263 95.632 191.852 95.94C191.441 96.2387 191.236 96.696 191.236 97.312C191.236 97.9373 191.441 98.404 191.852 98.712C192.263 99.02 192.86 99.174 193.644 99.174ZM193.644 94.526C194.335 94.526 194.871 94.3673 195.254 94.05C195.637 93.7327 195.828 93.294 195.828 92.734C195.828 92.174 195.637 91.74 195.254 91.432C194.871 91.1147 194.335 90.956 193.644 90.956C192.963 90.956 192.431 91.1147 192.048 91.432C191.665 91.74 191.474 92.174 191.474 92.734C191.474 93.294 191.665 93.7327 192.048 94.05C192.431 94.3673 192.963 94.526 193.644 94.526ZM205.217 100V97.886H200.667V97.018L205.413 90.13H206.379V96.906H207.849V97.886H206.379V100H205.217ZM205.217 96.906V91.516H205.553L201.647 97.214V96.906H205.217ZM211.441 96.738V95.8H215.361V96.738H211.441ZM221.995 100.126C221.659 100.126 221.318 100.079 220.973 99.986C220.627 99.8833 220.301 99.7433 219.993 99.566C219.694 99.3887 219.433 99.1787 219.209 98.936L219.643 98.026C219.979 98.39 220.352 98.6607 220.763 98.838C221.173 99.0153 221.589 99.104 222.009 99.104C222.466 99.104 222.872 99.02 223.227 98.852C223.581 98.684 223.88 98.432 224.123 98.096C224.365 97.7507 224.547 97.326 224.669 96.822C224.799 96.3087 224.865 95.716 224.865 95.044V93.742H224.977C224.921 94.2647 224.762 94.722 224.501 95.114C224.249 95.506 223.922 95.8047 223.521 96.01C223.119 96.2153 222.667 96.318 222.163 96.318C221.584 96.318 221.071 96.1873 220.623 95.926C220.184 95.6647 219.834 95.296 219.573 94.82C219.321 94.344 219.195 93.8073 219.195 93.21C219.195 92.5847 219.325 92.034 219.587 91.558C219.857 91.0727 220.226 90.6947 220.693 90.424C221.169 90.144 221.715 90.004 222.331 90.004C223.105 90.004 223.763 90.1953 224.305 90.578C224.855 90.9513 225.271 91.4973 225.551 92.216C225.831 92.9347 225.971 93.8027 225.971 94.82C225.971 95.9493 225.812 96.9107 225.495 97.704C225.187 98.4973 224.734 99.0993 224.137 99.51C223.549 99.9207 222.835 100.126 221.995 100.126ZM222.415 95.352C222.825 95.352 223.189 95.2587 223.507 95.072C223.824 94.8853 224.071 94.6287 224.249 94.302C224.426 93.9753 224.515 93.5973 224.515 93.168C224.515 92.7293 224.426 92.3467 224.249 92.02C224.071 91.6933 223.824 91.4367 223.507 91.25C223.189 91.0633 222.825 90.97 222.415 90.97C221.995 90.97 221.626 91.0633 221.309 91.25C221.001 91.4367 220.753 91.6933 220.567 92.02C220.389 92.3467 220.301 92.7293 220.301 93.168C220.301 93.5973 220.389 93.9753 220.567 94.302C220.753 94.6287 221.001 94.8853 221.309 95.072C221.626 95.2587 221.995 95.352 222.415 95.352ZM230.221 100V99.132L233.595 95.492C233.913 95.1467 234.169 94.8247 234.365 94.526C234.561 94.218 234.706 93.9193 234.799 93.63C234.893 93.3407 234.939 93.0467 234.939 92.748C234.939 92.188 234.767 91.7633 234.421 91.474C234.085 91.1753 233.591 91.026 232.937 91.026C232.433 91.026 231.962 91.1193 231.523 91.306C231.094 91.4833 230.683 91.7633 230.291 92.146L229.857 91.25C230.221 90.8767 230.683 90.578 231.243 90.354C231.813 90.1207 232.41 90.004 233.035 90.004C233.698 90.004 234.258 90.1067 234.715 90.312C235.173 90.5173 235.518 90.8207 235.751 91.222C235.985 91.614 236.101 92.0947 236.101 92.664C236.101 92.9627 236.064 93.2567 235.989 93.546C235.924 93.826 235.817 94.1107 235.667 94.4C235.527 94.68 235.345 94.9693 235.121 95.268C234.907 95.5667 234.645 95.8747 234.337 96.192L231.369 99.342V99.02H236.507V100H230.221Z" fill="white"/>
<path d="M191.012 135L195.856 125.62V126.124H190.382V125.13H196.906V125.998L192.286 135H191.012ZM204.349 135.126C203.929 135.126 203.518 135.079 203.117 134.986C202.715 134.893 202.337 134.757 201.983 134.58C201.637 134.403 201.329 134.193 201.059 133.95L201.493 133.04C201.941 133.404 202.393 133.675 202.851 133.852C203.317 134.02 203.812 134.104 204.335 134.104C205.025 134.104 205.562 133.913 205.945 133.53C206.337 133.147 206.533 132.643 206.533 132.018C206.533 131.374 206.346 130.847 205.973 130.436C205.599 130.025 205.086 129.82 204.433 129.82C203.957 129.82 203.537 129.918 203.173 130.114C202.818 130.301 202.496 130.595 202.207 130.996H201.367V125.13H207.093V126.11H202.501V130.044H202.193C202.435 129.652 202.771 129.353 203.201 129.148C203.63 128.933 204.111 128.826 204.643 128.826C205.268 128.826 205.805 128.957 206.253 129.218C206.71 129.479 207.06 129.848 207.303 130.324C207.555 130.791 207.681 131.337 207.681 131.962C207.681 132.578 207.545 133.124 207.275 133.6C207.004 134.076 206.621 134.449 206.127 134.72C205.632 134.991 205.039 135.126 204.349 135.126ZM211.441 131.738V130.8H215.361V131.738H211.441ZM222.667 135.126C221.556 135.126 220.693 134.888 220.077 134.412C219.461 133.927 219.153 133.25 219.153 132.382C219.153 131.925 219.246 131.519 219.433 131.164C219.619 130.8 219.881 130.506 220.217 130.282C220.553 130.058 220.94 129.918 221.379 129.862V130.072C220.977 129.979 220.627 129.82 220.329 129.596C220.03 129.363 219.797 129.078 219.629 128.742C219.47 128.406 219.391 128.037 219.391 127.636C219.391 126.805 219.685 126.161 220.273 125.704C220.87 125.237 221.668 125.004 222.667 125.004C223.675 125.004 224.473 125.237 225.061 125.704C225.658 126.161 225.957 126.805 225.957 127.636C225.957 128.037 225.873 128.411 225.705 128.756C225.546 129.092 225.317 129.372 225.019 129.596C224.72 129.82 224.37 129.974 223.969 130.058V129.862C224.407 129.918 224.79 130.063 225.117 130.296C225.453 130.52 225.714 130.809 225.901 131.164C226.087 131.519 226.181 131.925 226.181 132.382C226.181 133.25 225.873 133.927 225.257 134.412C224.641 134.888 223.777 135.126 222.667 135.126ZM222.667 134.174C223.46 134.174 224.057 134.02 224.459 133.712C224.869 133.404 225.075 132.937 225.075 132.312C225.075 131.696 224.869 131.239 224.459 130.94C224.057 130.632 223.46 130.478 222.667 130.478C221.883 130.478 221.285 130.632 220.875 130.94C220.464 131.239 220.259 131.696 220.259 132.312C220.259 132.937 220.464 133.404 220.875 133.712C221.285 134.02 221.883 134.174 222.667 134.174ZM222.667 129.526C223.357 129.526 223.894 129.367 224.277 129.05C224.659 128.733 224.851 128.294 224.851 127.734C224.851 127.174 224.659 126.74 224.277 126.432C223.894 126.115 223.357 125.956 222.667 125.956C221.985 125.956 221.453 126.115 221.071 126.432C220.688 126.74 220.497 127.174 220.497 127.734C220.497 128.294 220.688 128.733 221.071 129.05C221.453 129.367 221.985 129.526 222.667 129.526ZM234.239 135V132.886H229.689V132.018L234.435 125.13H235.401V131.906H236.871V132.886H235.401V135H234.239ZM234.239 131.906V126.516H234.575L230.669 132.214V131.906H234.239Z" fill="white"/>
<path d="M315.414 134.126C314.303 134.126 313.44 133.888 312.824 133.412C312.208 132.927 311.9 132.25 311.9 131.382C311.9 130.925 311.993 130.519 312.18 130.164C312.367 129.8 312.628 129.506 312.964 129.282C313.3 129.058 313.687 128.918 314.126 128.862V129.072C313.725 128.979 313.375 128.82 313.076 128.596C312.777 128.363 312.544 128.078 312.376 127.742C312.217 127.406 312.138 127.037 312.138 126.636C312.138 125.805 312.432 125.161 313.02 124.704C313.617 124.237 314.415 124.004 315.414 124.004C316.422 124.004 317.22 124.237 317.808 124.704C318.405 125.161 318.704 125.805 318.704 126.636C318.704 127.037 318.62 127.411 318.452 127.756C318.293 128.092 318.065 128.372 317.766 128.596C317.467 128.82 317.117 128.974 316.716 129.058V128.862C317.155 128.918 317.537 129.063 317.864 129.296C318.2 129.52 318.461 129.809 318.648 130.164C318.835 130.519 318.928 130.925 318.928 131.382C318.928 132.25 318.62 132.927 318.004 133.412C317.388 133.888 316.525 134.126 315.414 134.126ZM315.414 133.174C316.207 133.174 316.805 133.02 317.206 132.712C317.617 132.404 317.822 131.937 317.822 131.312C317.822 130.696 317.617 130.239 317.206 129.94C316.805 129.632 316.207 129.478 315.414 129.478C314.63 129.478 314.033 129.632 313.622 129.94C313.211 130.239 313.006 130.696 313.006 131.312C313.006 131.937 313.211 132.404 313.622 132.712C314.033 133.02 314.63 133.174 315.414 133.174ZM315.414 128.526C316.105 128.526 316.641 128.367 317.024 128.05C317.407 127.733 317.598 127.294 317.598 126.734C317.598 126.174 317.407 125.74 317.024 125.432C316.641 125.115 316.105 124.956 315.414 124.956C314.733 124.956 314.201 125.115 313.818 125.432C313.435 125.74 313.244 126.174 313.244 126.734C313.244 127.294 313.435 127.733 313.818 128.05C314.201 128.367 314.733 128.526 315.414 128.526ZM322.969 134V133.132L326.343 129.492C326.66 129.147 326.917 128.825 327.113 128.526C327.309 128.218 327.453 127.919 327.547 127.63C327.64 127.341 327.687 127.047 327.687 126.748C327.687 126.188 327.514 125.763 327.169 125.474C326.833 125.175 326.338 125.026 325.685 125.026C325.181 125.026 324.709 125.119 324.271 125.306C323.841 125.483 323.431 125.763 323.039 126.146L322.605 125.25C322.969 124.877 323.431 124.578 323.991 124.354C324.56 124.121 325.157 124.004 325.783 124.004C326.445 124.004 327.005 124.107 327.463 124.312C327.92 124.517 328.265 124.821 328.499 125.222C328.732 125.614 328.849 126.095 328.849 126.664C328.849 126.963 328.811 127.257 328.737 127.546C328.671 127.826 328.564 128.111 328.415 128.4C328.275 128.68 328.093 128.969 327.869 129.268C327.654 129.567 327.393 129.875 327.085 130.192L324.117 133.342V133.02H329.255V134H322.969ZM333.211 130.738V129.8H337.131V130.738H333.211ZM343.765 134.126C343.429 134.126 343.088 134.079 342.743 133.986C342.397 133.883 342.071 133.743 341.763 133.566C341.464 133.389 341.203 133.179 340.979 132.936L341.413 132.026C341.749 132.39 342.122 132.661 342.533 132.838C342.943 133.015 343.359 133.104 343.779 133.104C344.236 133.104 344.642 133.02 344.997 132.852C345.351 132.684 345.65 132.432 345.893 132.096C346.135 131.751 346.317 131.326 346.439 130.822C346.569 130.309 346.635 129.716 346.635 129.044V127.742H346.747C346.691 128.265 346.532 128.722 346.271 129.114C346.019 129.506 345.692 129.805 345.291 130.01C344.889 130.215 344.437 130.318 343.933 130.318C343.354 130.318 342.841 130.187 342.393 129.926C341.954 129.665 341.604 129.296 341.343 128.82C341.091 128.344 340.965 127.807 340.965 127.21C340.965 126.585 341.095 126.034 341.357 125.558C341.627 125.073 341.996 124.695 342.463 124.424C342.939 124.144 343.485 124.004 344.101 124.004C344.875 124.004 345.533 124.195 346.075 124.578C346.625 124.951 347.041 125.497 347.321 126.216C347.601 126.935 347.741 127.803 347.741 128.82C347.741 129.949 347.582 130.911 347.265 131.704C346.957 132.497 346.504 133.099 345.907 133.51C345.319 133.921 344.605 134.126 343.765 134.126ZM344.185 129.352C344.595 129.352 344.959 129.259 345.277 129.072C345.594 128.885 345.841 128.629 346.019 128.302C346.196 127.975 346.285 127.597 346.285 127.168C346.285 126.729 346.196 126.347 346.019 126.02C345.841 125.693 345.594 125.437 345.277 125.25C344.959 125.063 344.595 124.97 344.185 124.97C343.765 124.97 343.396 125.063 343.079 125.25C342.771 125.437 342.523 125.693 342.337 126.02C342.159 126.347 342.071 126.729 342.071 127.168C342.071 127.597 342.159 127.975 342.337 128.302C342.523 128.629 342.771 128.885 343.079 129.072C343.396 129.259 343.765 129.352 344.185 129.352ZM354.931 134.126C354.185 134.126 353.55 133.935 353.027 133.552C352.514 133.16 352.127 132.586 351.865 131.83C351.604 131.074 351.473 130.15 351.473 129.058C351.473 127.957 351.604 127.033 351.865 126.286C352.127 125.53 352.514 124.961 353.027 124.578C353.55 124.195 354.185 124.004 354.931 124.004C355.687 124.004 356.322 124.195 356.835 124.578C357.349 124.961 357.736 125.525 357.997 126.272C358.259 127.019 358.389 127.943 358.389 129.044C358.389 130.145 358.259 131.074 357.997 131.83C357.736 132.586 357.349 133.16 356.835 133.552C356.322 133.935 355.687 134.126 354.931 134.126ZM354.931 133.132C355.715 133.132 356.294 132.801 356.667 132.138C357.05 131.475 357.241 130.444 357.241 129.044C357.241 127.644 357.055 126.622 356.681 125.978C356.308 125.325 355.725 124.998 354.931 124.998C354.157 124.998 353.578 125.325 353.195 125.978C352.813 126.631 352.621 127.653 352.621 129.044C352.621 130.444 352.808 131.475 353.181 132.138C353.564 132.801 354.147 133.132 354.931 133.132Z" fill="white"/>
<path d="M436.844 135.126C435.734 135.126 434.87 134.888 434.254 134.412C433.638 133.927 433.33 133.25 433.33 132.382C433.33 131.925 433.424 131.519 433.61 131.164C433.797 130.8 434.058 130.506 434.394 130.282C434.73 130.058 435.118 129.918 435.556 129.862V130.072C435.155 129.979 434.805 129.82 434.506 129.596C434.208 129.363 433.974 129.078 433.806 128.742C433.648 128.406 433.568 128.037 433.568 127.636C433.568 126.805 433.862 126.161 434.45 125.704C435.048 125.237 435.846 125.004 436.844 125.004C437.852 125.004 438.65 125.237 439.238 125.704C439.836 126.161 440.134 126.805 440.134 127.636C440.134 128.037 440.05 128.411 439.882 128.756C439.724 129.092 439.495 129.372 439.196 129.596C438.898 129.82 438.548 129.974 438.146 130.058V129.862C438.585 129.918 438.968 130.063 439.294 130.296C439.63 130.52 439.892 130.809 440.078 131.164C440.265 131.519 440.358 131.925 440.358 132.382C440.358 133.25 440.05 133.927 439.434 134.412C438.818 134.888 437.955 135.126 436.844 135.126ZM436.844 134.174C437.638 134.174 438.235 134.02 438.636 133.712C439.047 133.404 439.252 132.937 439.252 132.312C439.252 131.696 439.047 131.239 438.636 130.94C438.235 130.632 437.638 130.478 436.844 130.478C436.06 130.478 435.463 130.632 435.052 130.94C434.642 131.239 434.436 131.696 434.436 132.312C434.436 132.937 434.642 133.404 435.052 133.712C435.463 134.02 436.06 134.174 436.844 134.174ZM436.844 129.526C437.535 129.526 438.072 129.367 438.454 129.05C438.837 128.733 439.028 128.294 439.028 127.734C439.028 127.174 438.837 126.74 438.454 126.432C438.072 126.115 437.535 125.956 436.844 125.956C436.163 125.956 435.631 126.115 435.248 126.432C434.866 126.74 434.674 127.174 434.674 127.734C434.674 128.294 434.866 128.733 435.248 129.05C435.631 129.367 436.163 129.526 436.844 129.526ZM447.339 135.126C446.228 135.126 445.365 134.888 444.749 134.412C444.133 133.927 443.825 133.25 443.825 132.382C443.825 131.925 443.918 131.519 444.105 131.164C444.292 130.8 444.553 130.506 444.889 130.282C445.225 130.058 445.612 129.918 446.051 129.862V130.072C445.65 129.979 445.3 129.82 445.001 129.596C444.702 129.363 444.469 129.078 444.301 128.742C444.142 128.406 444.063 128.037 444.063 127.636C444.063 126.805 444.357 126.161 444.945 125.704C445.542 125.237 446.34 125.004 447.339 125.004C448.347 125.004 449.145 125.237 449.733 125.704C450.33 126.161 450.629 126.805 450.629 127.636C450.629 128.037 450.545 128.411 450.377 128.756C450.218 129.092 449.99 129.372 449.691 129.596C449.392 129.82 449.042 129.974 448.641 130.058V129.862C449.08 129.918 449.462 130.063 449.789 130.296C450.125 130.52 450.386 130.809 450.573 131.164C450.76 131.519 450.853 131.925 450.853 132.382C450.853 133.25 450.545 133.927 449.929 134.412C449.313 134.888 448.45 135.126 447.339 135.126ZM447.339 134.174C448.132 134.174 448.73 134.02 449.131 133.712C449.542 133.404 449.747 132.937 449.747 132.312C449.747 131.696 449.542 131.239 449.131 130.94C448.73 130.632 448.132 130.478 447.339 130.478C446.555 130.478 445.958 130.632 445.547 130.94C445.136 131.239 444.931 131.696 444.931 132.312C444.931 132.937 445.136 133.404 445.547 133.712C445.958 134.02 446.555 134.174 447.339 134.174ZM447.339 129.526C448.03 129.526 448.566 129.367 448.949 129.05C449.332 128.733 449.523 128.294 449.523 127.734C449.523 127.174 449.332 126.74 448.949 126.432C448.566 126.115 448.03 125.956 447.339 125.956C446.658 125.956 446.126 126.115 445.743 126.432C445.36 126.74 445.169 127.174 445.169 127.734C445.169 128.294 445.36 128.733 445.743 129.05C446.126 129.367 446.658 129.526 447.339 129.526ZM454.641 131.738V130.8H458.561V131.738H454.641ZM465.195 135.126C464.859 135.126 464.518 135.079 464.173 134.986C463.828 134.883 463.501 134.743 463.193 134.566C462.894 134.389 462.633 134.179 462.409 133.936L462.843 133.026C463.179 133.39 463.552 133.661 463.963 133.838C464.374 134.015 464.789 134.104 465.209 134.104C465.666 134.104 466.072 134.02 466.427 133.852C466.782 133.684 467.08 133.432 467.323 133.096C467.566 132.751 467.748 132.326 467.869 131.822C468 131.309 468.065 130.716 468.065 130.044V128.742H468.177C468.121 129.265 467.962 129.722 467.701 130.114C467.449 130.506 467.122 130.805 466.721 131.01C466.32 131.215 465.867 131.318 465.363 131.318C464.784 131.318 464.271 131.187 463.823 130.926C463.384 130.665 463.034 130.296 462.773 129.82C462.521 129.344 462.395 128.807 462.395 128.21C462.395 127.585 462.526 127.034 462.787 126.558C463.058 126.073 463.426 125.695 463.893 125.424C464.369 125.144 464.915 125.004 465.531 125.004C466.306 125.004 466.964 125.195 467.505 125.578C468.056 125.951 468.471 126.497 468.751 127.216C469.031 127.935 469.171 128.803 469.171 129.82C469.171 130.949 469.012 131.911 468.695 132.704C468.387 133.497 467.934 134.099 467.337 134.51C466.749 134.921 466.035 135.126 465.195 135.126ZM465.615 130.352C466.026 130.352 466.39 130.259 466.707 130.072C467.024 129.885 467.272 129.629 467.449 129.302C467.626 128.975 467.715 128.597 467.715 128.168C467.715 127.729 467.626 127.347 467.449 127.02C467.272 126.693 467.024 126.437 466.707 126.25C466.39 126.063 466.026 125.97 465.615 125.97C465.195 125.97 464.826 126.063 464.509 126.25C464.201 126.437 463.954 126.693 463.767 127.02C463.59 127.347 463.501 127.729 463.501 128.168C463.501 128.597 463.59 128.975 463.767 129.302C463.954 129.629 464.201 129.885 464.509 130.072C464.826 130.259 465.195 130.352 465.615 130.352ZM476.712 135.126C475.928 135.126 475.26 134.939 474.71 134.566C474.168 134.183 473.758 133.633 473.478 132.914C473.198 132.195 473.058 131.327 473.058 130.31C473.058 129.171 473.212 128.21 473.52 127.426C473.837 126.633 474.294 126.031 474.892 125.62C475.498 125.209 476.217 125.004 477.048 125.004C477.384 125.004 477.724 125.055 478.07 125.158C478.415 125.251 478.737 125.387 479.036 125.564C479.344 125.741 479.605 125.951 479.82 126.194L479.4 127.09C479.054 126.726 478.676 126.46 478.266 126.292C477.864 126.115 477.449 126.026 477.02 126.026C476.562 126.026 476.156 126.11 475.802 126.278C475.456 126.446 475.158 126.703 474.906 127.048C474.663 127.384 474.481 127.809 474.36 128.322C474.238 128.826 474.178 129.414 474.178 130.086V131.388H474.052C474.108 130.856 474.262 130.399 474.514 130.016C474.775 129.624 475.106 129.325 475.508 129.12C475.909 128.915 476.362 128.812 476.866 128.812C477.444 128.812 477.958 128.943 478.406 129.204C478.854 129.465 479.204 129.834 479.456 130.31C479.708 130.777 479.834 131.313 479.834 131.92C479.834 132.536 479.703 133.087 479.442 133.572C479.18 134.057 478.812 134.44 478.336 134.72C477.86 134.991 477.318 135.126 476.712 135.126ZM476.628 134.146C477.038 134.146 477.402 134.057 477.72 133.88C478.037 133.693 478.284 133.437 478.462 133.11C478.639 132.774 478.728 132.391 478.728 131.962C478.728 131.533 478.639 131.155 478.462 130.828C478.284 130.501 478.037 130.245 477.72 130.058C477.412 129.871 477.048 129.778 476.628 129.778C476.217 129.778 475.853 129.871 475.536 130.058C475.218 130.245 474.971 130.501 474.794 130.828C474.616 131.155 474.528 131.533 474.528 131.962C474.528 132.391 474.616 132.774 474.794 133.11C474.971 133.437 475.218 133.693 475.536 133.88C475.853 134.057 476.217 134.146 476.628 134.146Z" fill="white"/>
<path d="M550.625 134.126C550.289 134.126 549.948 134.079 549.603 133.986C549.257 133.883 548.931 133.743 548.623 133.566C548.324 133.389 548.063 133.179 547.839 132.936L548.273 132.026C548.609 132.39 548.982 132.661 549.393 132.838C549.803 133.015 550.219 133.104 550.639 133.104C551.096 133.104 551.502 133.02 551.857 132.852C552.211 132.684 552.51 132.432 552.753 132.096C552.995 131.751 553.177 131.326 553.299 130.822C553.429 130.309 553.495 129.716 553.495 129.044V127.742H553.607C553.551 128.265 553.392 128.722 553.131 129.114C552.879 129.506 552.552 129.805 552.151 130.01C551.749 130.215 551.297 130.318 550.793 130.318C550.214 130.318 549.701 130.187 549.253 129.926C548.814 129.665 548.464 129.296 548.203 128.82C547.951 128.344 547.825 127.807 547.825 127.21C547.825 126.585 547.955 126.034 548.217 125.558C548.487 125.073 548.856 124.695 549.323 124.424C549.799 124.144 550.345 124.004 550.961 124.004C551.735 124.004 552.393 124.195 552.935 124.578C553.485 124.951 553.901 125.497 554.181 126.216C554.461 126.935 554.601 127.803 554.601 128.82C554.601 129.949 554.442 130.911 554.125 131.704C553.817 132.497 553.364 133.099 552.767 133.51C552.179 133.921 551.465 134.126 550.625 134.126ZM551.045 129.352C551.455 129.352 551.819 129.259 552.137 129.072C552.454 128.885 552.701 128.629 552.879 128.302C553.056 127.975 553.145 127.597 553.145 127.168C553.145 126.729 553.056 126.347 552.879 126.02C552.701 125.693 552.454 125.437 552.137 125.25C551.819 125.063 551.455 124.97 551.045 124.97C550.625 124.97 550.256 125.063 549.939 125.25C549.631 125.437 549.383 125.693 549.197 126.02C549.019 126.347 548.931 126.729 548.931 127.168C548.931 127.597 549.019 127.975 549.197 128.302C549.383 128.629 549.631 128.885 549.939 129.072C550.256 129.259 550.625 129.352 551.045 129.352ZM562.869 134V131.886H558.319V131.018L563.065 124.13H564.031V130.906H565.501V131.886H564.031V134H562.869ZM562.869 130.906V125.516H563.205L559.299 131.214V130.906H562.869ZM569.094 130.738V129.8H573.014V130.738H569.094ZM577.855 134V133.02H580.109V125.124H580.711L578.331 126.636L577.841 125.782L580.431 124.13H581.257V133.02H583.371V134H577.855ZM590.814 134.126C590.067 134.126 589.433 133.935 588.91 133.552C588.397 133.16 588.009 132.586 587.748 131.83C587.487 131.074 587.356 130.15 587.356 129.058C587.356 127.957 587.487 127.033 587.748 126.286C588.009 125.53 588.397 124.961 588.91 124.578C589.433 124.195 590.067 124.004 590.814 124.004C591.57 124.004 592.205 124.195 592.718 124.578C593.231 124.961 593.619 125.525 593.88 126.272C594.141 127.019 594.272 127.943 594.272 129.044C594.272 130.145 594.141 131.074 593.88 131.83C593.619 132.586 593.231 133.16 592.718 133.552C592.205 133.935 591.57 134.126 590.814 134.126ZM590.814 133.132C591.598 133.132 592.177 132.801 592.55 132.138C592.933 131.475 593.124 130.444 593.124 129.044C593.124 127.644 592.937 126.622 592.564 125.978C592.191 125.325 591.607 124.998 590.814 124.998C590.039 124.998 589.461 125.325 589.078 125.978C588.695 126.631 588.504 127.653 588.504 129.044C588.504 130.444 588.691 131.475 589.064 132.138C589.447 132.801 590.03 133.132 590.814 133.132ZM602.386 134V131.886H597.836V131.018L602.582 124.13H603.548V130.906H605.018V131.886H603.548V134H602.386ZM602.386 130.906V125.516H602.722L598.816 131.214V130.906H602.386Z" fill="white"/>
<path d="M314.072 100.126C313.736 100.126 313.395 100.079 313.05 99.986C312.705 99.8833 312.378 99.7433 312.07 99.566C311.771 99.3887 311.51 99.1787 311.286 98.936L311.72 98.026C312.056 98.39 312.429 98.6607 312.84 98.838C313.251 99.0153 313.666 99.104 314.086 99.104C314.543 99.104 314.949 99.02 315.304 98.852C315.659 98.684 315.957 98.432 316.2 98.096C316.443 97.7507 316.625 97.326 316.746 96.822C316.877 96.3087 316.942 95.716 316.942 95.044V93.742H317.054C316.998 94.2647 316.839 94.722 316.578 95.114C316.326 95.506 315.999 95.8047 315.598 96.01C315.197 96.2153 314.744 96.318 314.24 96.318C313.661 96.318 313.148 96.1873 312.7 95.926C312.261 95.6647 311.911 95.296 311.65 94.82C311.398 94.344 311.272 93.8073 311.272 93.21C311.272 92.5847 311.403 92.034 311.664 91.558C311.935 91.0727 312.303 90.6947 312.77 90.424C313.246 90.144 313.792 90.004 314.408 90.004C315.183 90.004 315.841 90.1953 316.382 90.578C316.933 90.9513 317.348 91.4973 317.628 92.216C317.908 92.9347 318.048 93.8027 318.048 94.82C318.048 95.9493 317.889 96.9107 317.572 97.704C317.264 98.4973 316.811 99.0993 316.214 99.51C315.626 99.9207 314.912 100.126 314.072 100.126ZM314.492 95.352C314.903 95.352 315.267 95.2587 315.584 95.072C315.901 94.8853 316.149 94.6287 316.326 94.302C316.503 93.9753 316.592 93.5973 316.592 93.168C316.592 92.7293 316.503 92.3467 316.326 92.02C316.149 91.6933 315.901 91.4367 315.584 91.25C315.267 91.0633 314.903 90.97 314.492 90.97C314.072 90.97 313.703 91.0633 313.386 91.25C313.078 91.4367 312.831 91.6933 312.644 92.02C312.467 92.3467 312.378 92.7293 312.378 93.168C312.378 93.5973 312.467 93.9753 312.644 94.302C312.831 94.6287 313.078 94.8853 313.386 95.072C313.703 95.2587 314.072 95.352 314.492 95.352ZM325.239 100.126C324.492 100.126 323.857 99.9347 323.335 99.552C322.821 99.16 322.434 98.586 322.173 97.83C321.911 97.074 321.781 96.15 321.781 95.058C321.781 93.9567 321.911 93.0327 322.173 92.286C322.434 91.53 322.821 90.9607 323.335 90.578C323.857 90.1953 324.492 90.004 325.239 90.004C325.995 90.004 326.629 90.1953 327.143 90.578C327.656 90.9607 328.043 91.5253 328.305 92.272C328.566 93.0187 328.697 93.9427 328.697 95.044C328.697 96.1453 328.566 97.074 328.305 97.83C328.043 98.586 327.656 99.16 327.143 99.552C326.629 99.9347 325.995 100.126 325.239 100.126ZM325.239 99.132C326.023 99.132 326.601 98.8007 326.975 98.138C327.357 97.4753 327.549 96.444 327.549 95.044C327.549 93.644 327.362 92.622 326.989 91.978C326.615 91.3247 326.032 90.998 325.239 90.998C324.464 90.998 323.885 91.3247 323.503 91.978C323.12 92.6313 322.929 93.6533 322.929 95.044C322.929 96.444 323.115 97.4753 323.489 98.138C323.871 98.8007 324.455 99.132 325.239 99.132ZM332.541 96.738V95.8H336.461V96.738H332.541ZM343.095 100.126C342.759 100.126 342.418 100.079 342.073 99.986C341.727 99.8833 341.401 99.7433 341.093 99.566C340.794 99.3887 340.533 99.1787 340.309 98.936L340.743 98.026C341.079 98.39 341.452 98.6607 341.863 98.838C342.273 99.0153 342.689 99.104 343.109 99.104C343.566 99.104 343.972 99.02 344.327 98.852C344.681 98.684 344.98 98.432 345.223 98.096C345.465 97.7507 345.647 97.326 345.769 96.822C345.899 96.3087 345.965 95.716 345.965 95.044V93.742H346.077C346.021 94.2647 345.862 94.722 345.601 95.114C345.349 95.506 345.022 95.8047 344.621 96.01C344.219 96.2153 343.767 96.318 343.263 96.318C342.684 96.318 342.171 96.1873 341.723 95.926C341.284 95.6647 340.934 95.296 340.673 94.82C340.421 94.344 340.295 93.8073 340.295 93.21C340.295 92.5847 340.425 92.034 340.687 91.558C340.957 91.0727 341.326 90.6947 341.793 90.424C342.269 90.144 342.815 90.004 343.431 90.004C344.205 90.004 344.863 90.1953 345.405 90.578C345.955 90.9513 346.371 91.4973 346.651 92.216C346.931 92.9347 347.071 93.8027 347.071 94.82C347.071 95.9493 346.912 96.9107 346.595 97.704C346.287 98.4973 345.834 99.0993 345.237 99.51C344.649 99.9207 343.935 100.126 343.095 100.126ZM343.515 95.352C343.925 95.352 344.289 95.2587 344.607 95.072C344.924 94.8853 345.171 94.6287 345.349 94.302C345.526 93.9753 345.615 93.5973 345.615 93.168C345.615 92.7293 345.526 92.3467 345.349 92.02C345.171 91.6933 344.924 91.4367 344.607 91.25C344.289 91.0633 343.925 90.97 343.515 90.97C343.095 90.97 342.726 91.0633 342.409 91.25C342.101 91.4367 341.853 91.6933 341.667 92.02C341.489 92.3467 341.401 92.7293 341.401 93.168C341.401 93.5973 341.489 93.9753 341.667 94.302C341.853 94.6287 342.101 94.8853 342.409 95.072C342.726 95.2587 343.095 95.352 343.515 95.352ZM354.261 100.126C353.151 100.126 352.287 99.888 351.671 99.412C351.055 98.9267 350.747 98.25 350.747 97.382C350.747 96.9247 350.841 96.5187 351.027 96.164C351.214 95.8 351.475 95.506 351.811 95.282C352.147 95.058 352.535 94.918 352.973 94.862V95.072C352.572 94.9787 352.222 94.82 351.923 94.596C351.625 94.3627 351.391 94.078 351.223 93.742C351.065 93.406 350.985 93.0373 350.985 92.636C350.985 91.8053 351.279 91.1613 351.867 90.704C352.465 90.2373 353.263 90.004 354.261 90.004C355.269 90.004 356.067 90.2373 356.655 90.704C357.253 91.1613 357.551 91.8053 357.551 92.636C357.551 93.0373 357.467 93.4107 357.299 93.756C357.141 94.092 356.912 94.372 356.613 94.596C356.315 94.82 355.965 94.974 355.563 95.058V94.862C356.002 94.918 356.385 95.0627 356.711 95.296C357.047 95.52 357.309 95.8093 357.495 96.164C357.682 96.5187 357.775 96.9247 357.775 97.382C357.775 98.25 357.467 98.9267 356.851 99.412C356.235 99.888 355.372 100.126 354.261 100.126ZM354.261 99.174C355.055 99.174 355.652 99.02 356.053 98.712C356.464 98.404 356.669 97.9373 356.669 97.312C356.669 96.696 356.464 96.2387 356.053 95.94C355.652 95.632 355.055 95.478 354.261 95.478C353.477 95.478 352.88 95.632 352.469 95.94C352.059 96.2387 351.853 96.696 351.853 97.312C351.853 97.9373 352.059 98.404 352.469 98.712C352.88 99.02 353.477 99.174 354.261 99.174ZM354.261 94.526C354.952 94.526 355.489 94.3673 355.871 94.05C356.254 93.7327 356.445 93.294 356.445 92.734C356.445 92.174 356.254 91.74 355.871 91.432C355.489 91.1147 354.952 90.956 354.261 90.956C353.58 90.956 353.048 91.1147 352.665 91.432C352.283 91.74 352.091 92.174 352.091 92.734C352.091 93.294 352.283 93.7327 352.665 94.05C353.048 94.3673 353.58 94.526 354.261 94.526Z" fill="white"/>
<path d="M430.291 99.126C429.955 99.126 429.614 99.0793 429.269 98.986C428.924 98.8833 428.597 98.7433 428.289 98.566C427.99 98.3887 427.729 98.1787 427.505 97.936L427.939 97.026C428.275 97.39 428.648 97.6607 429.059 97.838C429.47 98.0153 429.885 98.104 430.305 98.104C430.762 98.104 431.168 98.02 431.523 97.852C431.878 97.684 432.176 97.432 432.419 97.096C432.662 96.7507 432.844 96.326 432.965 95.822C433.096 95.3087 433.161 94.716 433.161 94.044V92.742H433.273C433.217 93.2647 433.058 93.722 432.797 94.114C432.545 94.506 432.218 94.8047 431.817 95.01C431.416 95.2153 430.963 95.318 430.459 95.318C429.88 95.318 429.367 95.1873 428.919 94.926C428.48 94.6647 428.13 94.296 427.869 93.82C427.617 93.344 427.491 92.8073 427.491 92.21C427.491 91.5847 427.622 91.034 427.883 90.558C428.154 90.0727 428.522 89.6947 428.989 89.424C429.465 89.144 430.011 89.004 430.627 89.004C431.402 89.004 432.06 89.1953 432.601 89.578C433.152 89.9513 433.567 90.4973 433.847 91.216C434.127 91.9347 434.267 92.8027 434.267 93.82C434.267 94.9493 434.108 95.9107 433.791 96.704C433.483 97.4973 433.03 98.0993 432.433 98.51C431.845 98.9207 431.131 99.126 430.291 99.126ZM430.711 94.352C431.122 94.352 431.486 94.2587 431.803 94.072C432.12 93.8853 432.368 93.6287 432.545 93.302C432.722 92.9753 432.811 92.5973 432.811 92.168C432.811 91.7293 432.722 91.3467 432.545 91.02C432.368 90.6933 432.12 90.4367 431.803 90.25C431.486 90.0633 431.122 89.97 430.711 89.97C430.291 89.97 429.922 90.0633 429.605 90.25C429.297 90.4367 429.05 90.6933 428.863 91.02C428.686 91.3467 428.597 91.7293 428.597 92.168C428.597 92.5973 428.686 92.9753 428.863 93.302C429.05 93.6287 429.297 93.8853 429.605 94.072C429.922 94.2587 430.291 94.352 430.711 94.352ZM441.808 99.126C441.024 99.126 440.356 98.9393 439.806 98.566C439.264 98.1833 438.854 97.6327 438.574 96.914C438.294 96.1953 438.154 95.3273 438.154 94.31C438.154 93.1713 438.308 92.21 438.616 91.426C438.933 90.6327 439.39 90.0307 439.988 89.62C440.594 89.2093 441.313 89.004 442.144 89.004C442.48 89.004 442.82 89.0553 443.166 89.158C443.511 89.2513 443.833 89.3867 444.132 89.564C444.44 89.7413 444.701 89.9513 444.916 90.194L444.496 91.09C444.15 90.726 443.772 90.46 443.362 90.292C442.96 90.1147 442.545 90.026 442.116 90.026C441.658 90.026 441.252 90.11 440.898 90.278C440.552 90.446 440.254 90.7027 440.002 91.048C439.759 91.384 439.577 91.8087 439.456 92.322C439.334 92.826 439.274 93.414 439.274 94.086V95.388H439.148C439.204 94.856 439.358 94.3987 439.61 94.016C439.871 93.624 440.202 93.3253 440.604 93.12C441.005 92.9147 441.458 92.812 441.962 92.812C442.54 92.812 443.054 92.9427 443.502 93.204C443.95 93.4653 444.3 93.834 444.552 94.31C444.804 94.7767 444.93 95.3133 444.93 95.92C444.93 96.536 444.799 97.0867 444.538 97.572C444.276 98.0573 443.908 98.44 443.432 98.72C442.956 98.9907 442.414 99.126 441.808 99.126ZM441.724 98.146C442.134 98.146 442.498 98.0573 442.816 97.88C443.133 97.6933 443.38 97.4367 443.558 97.11C443.735 96.774 443.824 96.3913 443.824 95.962C443.824 95.5327 443.735 95.1547 443.558 94.828C443.38 94.5013 443.133 94.2447 442.816 94.058C442.508 93.8713 442.144 93.778 441.724 93.778C441.313 93.778 440.949 93.8713 440.632 94.058C440.314 94.2447 440.067 94.5013 439.89 94.828C439.712 95.1547 439.624 95.5327 439.624 95.962C439.624 96.3913 439.712 96.774 439.89 97.11C440.067 97.4367 440.314 97.6933 440.632 97.88C440.949 98.0573 441.313 98.146 441.724 98.146ZM448.76 95.738V94.8H452.68V95.738H448.76ZM457.522 99V98.02H459.776V90.124H460.378L457.998 91.636L457.508 90.782L460.098 89.13H460.924V98.02H463.038V99H457.522ZM470.48 99.126C469.734 99.126 469.099 98.9347 468.576 98.552C468.063 98.16 467.676 97.586 467.414 96.83C467.153 96.074 467.022 95.15 467.022 94.058C467.022 92.9567 467.153 92.0327 467.414 91.286C467.676 90.53 468.063 89.9607 468.576 89.578C469.099 89.1953 469.734 89.004 470.48 89.004C471.236 89.004 471.871 89.1953 472.384 89.578C472.898 89.9607 473.285 90.5253 473.546 91.272C473.808 92.0187 473.938 92.9427 473.938 94.044C473.938 95.1453 473.808 96.074 473.546 96.83C473.285 97.586 472.898 98.16 472.384 98.552C471.871 98.9347 471.236 99.126 470.48 99.126ZM470.48 98.132C471.264 98.132 471.843 97.8007 472.216 97.138C472.599 96.4753 472.79 95.444 472.79 94.044C472.79 92.644 472.604 91.622 472.23 90.978C471.857 90.3247 471.274 89.998 470.48 89.998C469.706 89.998 469.127 90.3247 468.744 90.978C468.362 91.6313 468.17 92.6533 468.17 94.044C468.17 95.444 468.357 96.4753 468.73 97.138C469.113 97.8007 469.696 98.132 470.48 98.132ZM482.053 99V96.886H477.503V96.018L482.249 89.13H483.215V95.906H484.685V96.886H483.215V99H482.053ZM482.053 95.906V90.516H482.389L478.483 96.214V95.906H482.053Z" fill="white"/>
<path d="M543.586 99V98.02H545.84V90.124H546.442L544.062 91.636L543.572 90.782L546.162 89.13H546.988V98.02H549.102V99H543.586ZM556.544 99.126C555.798 99.126 555.163 98.9347 554.64 98.552C554.127 98.16 553.74 97.586 553.478 96.83C553.217 96.074 553.086 95.15 553.086 94.058C553.086 92.9567 553.217 92.0327 553.478 91.286C553.74 90.53 554.127 89.9607 554.64 89.578C555.163 89.1953 555.798 89.004 556.544 89.004C557.3 89.004 557.935 89.1953 558.448 89.578C558.962 89.9607 559.349 90.5253 559.61 91.272C559.872 92.0187 560.002 92.9427 560.002 94.044C560.002 95.1453 559.872 96.074 559.61 96.83C559.349 97.586 558.962 98.16 558.448 98.552C557.935 98.9347 557.3 99.126 556.544 99.126ZM556.544 98.132C557.328 98.132 557.907 97.8007 558.28 97.138C558.663 96.4753 558.854 95.444 558.854 94.044C558.854 92.644 558.668 91.622 558.294 90.978C557.921 90.3247 557.338 89.998 556.544 89.998C555.77 89.998 555.191 90.3247 554.808 90.978C554.426 91.6313 554.234 92.6533 554.234 94.044C554.234 95.444 554.421 96.4753 554.794 97.138C555.177 97.8007 555.76 98.132 556.544 98.132ZM564.099 99V98.132L567.473 94.492C567.79 94.1467 568.047 93.8247 568.243 93.526C568.439 93.218 568.583 92.9193 568.677 92.63C568.77 92.3407 568.817 92.0467 568.817 91.748C568.817 91.188 568.644 90.7633 568.299 90.474C567.963 90.1753 567.468 90.026 566.815 90.026C566.311 90.026 565.839 90.1193 565.401 90.306C564.971 90.4833 564.561 90.7633 564.169 91.146L563.735 90.25C564.099 89.8767 564.561 89.578 565.121 89.354C565.69 89.1207 566.287 89.004 566.913 89.004C567.575 89.004 568.135 89.1067 568.593 89.312C569.05 89.5173 569.395 89.8207 569.629 90.222C569.862 90.614 569.979 91.0947 569.979 91.664C569.979 91.9627 569.941 92.2567 569.867 92.546C569.801 92.826 569.694 93.1107 569.545 93.4C569.405 93.68 569.223 93.9693 568.999 94.268C568.784 94.5667 568.523 94.8747 568.215 95.192L565.247 98.342V98.02H570.385V99H564.099ZM574.341 95.738V94.8H578.261V95.738H574.341ZM583.103 99V98.02H585.357V90.124H585.959L583.579 91.636L583.089 90.782L585.679 89.13H586.505V98.02H588.619V99H583.103ZM593.597 99V98.02H595.851V90.124H596.453L594.073 91.636L593.583 90.782L596.173 89.13H596.999V98.02H599.113V99H593.597ZM606.556 99.126C605.809 99.126 605.175 98.9347 604.652 98.552C604.139 98.16 603.751 97.586 603.49 96.83C603.229 96.074 603.098 95.15 603.098 94.058C603.098 92.9567 603.229 92.0327 603.49 91.286C603.751 90.53 604.139 89.9607 604.652 89.578C605.175 89.1953 605.809 89.004 606.556 89.004C607.312 89.004 607.947 89.1953 608.46 89.578C608.973 89.9607 609.361 90.5253 609.622 91.272C609.883 92.0187 610.014 92.9427 610.014 94.044C610.014 95.1453 609.883 96.074 609.622 96.83C609.361 97.586 608.973 98.16 608.46 98.552C607.947 98.9347 607.312 99.126 606.556 99.126ZM606.556 98.132C607.34 98.132 607.919 97.8007 608.292 97.138C608.675 96.4753 608.866 95.444 608.866 94.044C608.866 92.644 608.679 91.622 608.306 90.978C607.933 90.3247 607.349 89.998 606.556 89.998C605.781 89.998 605.203 90.3247 604.82 90.978C604.437 91.6313 604.246 92.6533 604.246 94.044C604.246 95.444 604.433 96.4753 604.806 97.138C605.189 97.8007 605.772 98.132 606.556 98.132Z" fill="white"/>
<path d="M211.63 19.154C211.117 19.154 210.613 19.112 210.118 19.028C209.624 18.944 209.166 18.8227 208.746 18.664C208.326 18.5053 207.962 18.3187 207.654 18.104L208.368 16.102C208.658 16.2887 208.98 16.452 209.334 16.592C209.689 16.732 210.062 16.844 210.454 16.928C210.846 17.0027 211.238 17.04 211.63 17.04C212.246 17.04 212.676 16.9607 212.918 16.802C213.17 16.634 213.296 16.4287 213.296 16.186C213.296 16.0367 213.259 15.9107 213.184 15.808C213.11 15.7053 212.984 15.6167 212.806 15.542C212.638 15.458 212.41 15.388 212.12 15.332L210.482 14.982C209.586 14.7953 208.919 14.4687 208.48 14.002C208.042 13.5353 207.822 12.9333 207.822 12.196C207.822 11.5427 207.995 10.978 208.34 10.502C208.695 10.0167 209.185 9.64333 209.81 9.382C210.445 9.11133 211.173 8.976 211.994 8.976C212.452 8.976 212.89 9.018 213.31 9.102C213.74 9.186 214.136 9.312 214.5 9.48C214.864 9.63867 215.172 9.82533 215.424 10.04L214.71 11.916C214.356 11.6547 213.94 11.454 213.464 11.314C212.998 11.1647 212.498 11.09 211.966 11.09C211.621 11.09 211.327 11.132 211.084 11.216C210.842 11.2907 210.655 11.4027 210.524 11.552C210.403 11.7013 210.342 11.874 210.342 12.07C210.342 12.266 210.422 12.434 210.58 12.574C210.748 12.7047 211.052 12.8167 211.49 12.91L213.114 13.26C214.02 13.456 214.696 13.778 215.144 14.226C215.592 14.674 215.816 15.2573 215.816 15.976C215.816 16.6107 215.644 17.1707 215.298 17.656C214.953 18.132 214.468 18.5007 213.842 18.762C213.217 19.0233 212.48 19.154 211.63 19.154Z" fill="black"/>
<path d="M328.324 19V9.13H330.466L333.868 15.22H333.378L336.766 9.13H338.852V19H336.528V13.134H336.822L334.274 17.544H332.874L330.326 13.12H330.648V19H328.324Z" fill="black"/>
<path d="M452.43 19V9.13H455.006V16.858H459.402V19H452.43Z" fill="black"/>
<path d="M562.65 19L566.864 13.442V14.604L562.734 9.13H565.716L568.306 12.728H567.466L570.056 9.13H573.052L568.908 14.604V13.442L573.122 19H570.126L567.48 15.318H568.292L565.646 19H562.65ZM575.771 19V9.13H578.347V16.858H582.743V19H575.771Z" fill="black"/>
<line x1="0.5" y1="135" x2="0.5" y2="39" stroke="white"/>
</svg>
